<?xml version="1.0" encoding="UTF-8" standalone="no"?>
<svg xmlns="http://www.w3.org/2000/svg" contentScriptType="application/ecmascript" contentStyleType="text/css"
		 height="1197px" preserveAspectRatio="none" style="width:3307px;height:1197px;" version="1.1"
		 viewBox="0 0 3307 1197" width="3307px" zoomAndPan="magnify"><defs><filter height="300%" id="f1jkyunh9hhmfy" width="300%" x="-1" y="-1"><feGaussianBlur result="blurOut" stdDeviation="2.0"/><feColorMatrix in="blurOut" result="blurOut2" type="matrix" values="0 0 0 0 0 0 0 0 0 0 0 0 0 0 0 0 0 0 .4 0"/><feOffset dx="4.0" dy="4.0" in="blurOut2" result="blurOut3"/><feBlend in="SourceGraphic" in2="blurOut3" mode="normal"/></filter></defs><g><!--cluster platform--><polygon fill="#FFFFFF" filter="url(#f1jkyunh9hhmfy)" points="22,24,86,24,93,47.6094,3285,47.6094,3285,1185,22,1185,22,24" style="stroke: #000000; stroke-width: 2.0;"/><line style="stroke: #000000; stroke-width: 2.0;" x1="22" x2="93" y1="47.6094" y2="47.6094"/><text fill="#000000" font-family="sans-serif" font-size="14" font-weight="bold" lengthAdjust="spacingAndGlyphs" textLength="58" x="26" y="40.5332">platform</text><!--cluster event--><polygon fill="#FFFFFF" filter="url(#f1jkyunh9hhmfy)" points="46,613,93,613,100,636.6094,236,636.6094,236,755,46,755,46,613" style="stroke: #000000; stroke-width: 2.0;"/><line style="stroke: #000000; stroke-width: 2.0;" x1="46" x2="100" y1="636.6094" y2="636.6094"/><text fill="#000000" font-family="sans-serif" font-size="14" font-weight="bold" lengthAdjust="spacingAndGlyphs" textLength="41" x="50" y="629.5332">event</text><!--cluster entity--><polygon fill="#FFFFFF" filter="url(#f1jkyunh9hhmfy)" points="370,805,415,805,422,828.6094,742,828.6094,742,1161,370,1161,370,805" style="stroke: #000000; stroke-width: 2.0;"/><line style="stroke: #000000; stroke-width: 2.0;" x1="370" x2="422" y1="828.6094" y2="828.6094"/><text fill="#000000" font-family="sans-serif" font-size="14" font-weight="bold" lengthAdjust="spacingAndGlyphs" textLength="39" x="374" y="821.5332">entity</text><!--cluster media--><polygon fill="#FFFFFF" filter="url(#f1jkyunh9hhmfy)" points="2789,112,2837,112,2844,135.6094,3261,135.6094,3261,393.5,2789,393.5,2789,112" style="stroke: #000000; stroke-width: 2.0;"/><line style="stroke: #000000; stroke-width: 2.0;" x1="2789" x2="2844" y1="135.6094" y2="135.6094"/><text fill="#000000" font-family="sans-serif" font-size="14" font-weight="bold" lengthAdjust="spacingAndGlyphs" textLength="42" x="2793" y="128.5332">media</text><!--cluster input--><polygon fill="#FFFFFF" filter="url(#f1jkyunh9hhmfy)" points="2458,112,2500,112,2507,135.6094,2765,135.6094,2765,563,2458,563,2458,112" style="stroke: #000000; stroke-width: 2.0;"/><line style="stroke: #000000; stroke-width: 2.0;" x1="2458" x2="2507" y1="135.6094" y2="135.6094"/><text fill="#000000" font-family="sans-serif" font-size="14" font-weight="bold" lengthAdjust="spacingAndGlyphs" textLength="36" x="2462" y="128.5332">input</text><!--cluster math--><polygon fill="#FFFFFF" filter="url(#f1jkyunh9hhmfy)" points="2092,126,2132,126,2139,149.6094,2434,149.6094,2434,421,2092,421,2092,126" style="stroke: #000000; stroke-width: 2.0;"/><line style="stroke: #000000; stroke-width: 2.0;" x1="2092" x2="2139" y1="149.6094" y2="149.6094"/><text fill="#000000" font-family="sans-serif" font-size="14" font-weight="bold" lengthAdjust="spacingAndGlyphs" textLength="34" x="2096" y="142.5332">math</text><!--cluster storage--><polygon fill="#FFFFFF" filter="url(#f1jkyunh9hhmfy)" points="766,68,826,68,833,91.6094,2068,91.6094,2068,905,766,905,766,68" style="stroke: #000000; stroke-width: 2.0;"/><line style="stroke: #000000; stroke-width: 2.0;" x1="766" x2="833" y1="91.6094" y2="91.6094"/><text fill="#000000" font-family="sans-serif" font-size="14" font-weight="bold" lengthAdjust="spacingAndGlyphs" textLength="54" x="770" y="84.5332">storage</text><!--cluster serialization--><polygon fill="#FFFFFF" filter="url(#f1jkyunh9hhmfy)" points="992,112,1083,112,1090,135.6094,2044,135.6094,2044,417.5,992,417.5,992,112" style="stroke: #000000; stroke-width: 2.0;"/><line style="stroke: #000000; stroke-width: 2.0;" x1="992" x2="1090" y1="135.6094" y2="135.6094"/><text fill="#000000" font-family="sans-serif" font-size="14" font-weight="bold" lengthAdjust="spacingAndGlyphs" textLength="85" x="996" y="128.5332">serialization</text><!--cluster strategy--><polygon fill="#FFFFFF" filter="url(#f1jkyunh9hhmfy)" points="1016,293.5,1079,293.5,1086,317.1094,1551,317.1094,1551,393.5,1016,393.5,1016,293.5" style="stroke: #000000; stroke-width: 2.0;"/><line style="stroke: #000000; stroke-width: 2.0;" x1="1016" x2="1086" y1="317.1094" y2="317.1094"/><text fill="#000000" font-family="sans-serif" font-size="14" font-weight="bold" lengthAdjust="spacingAndGlyphs" textLength="57" x="1020" y="310.0332">strategy</text><!--class GameLoop--><rect fill="#FEFECE" filter="url(#f1jkyunh9hhmfy)" height="61.8359" id="GameLoop" style="stroke: #A80036; stroke-width: 1.5;" width="94" x="482" y="322.5"/><ellipse cx="497" cy="338.5" fill="#ADD1B2" rx="11" ry="11" style="stroke: #A80036; stroke-width: 1.0;"/><path d="M499,335 Q499.2031,334.5 499.4375,334.25 Q499.6719,334 499.9375,334 Q500.4063,334 500.7031,334.2813 Q501,334.5625 501,335.2188 L501,336.7813 Q501,337.4375 500.7188,337.7188 Q500.4375,338 500,338 Q499.6094,338 499.3594,337.8281 Q499.1094,337.6563 499,337.2031 Q498.9531,336.8906 498.7813,336.7188 Q498.4688,336.3906 497.9063,336.1953 Q497.3438,336 496.7813,336 Q496.0781,336 495.4922,336.2813 Q494.9063,336.5625 494.4531,337.1875 Q494,337.8125 494,338.6719 L494,339.5938 Q494,340.625 494.8438,341.3125 Q495.6875,342 497.1875,342 Q498.0781,342 498.7031,341.7969 Q499.0625,341.6875 499.4688,341.3281 Q499.7344,341.125 499.875,341.0625 Q500.0156,341 500.1875,341 Q500.5156,341 500.7578,341.2578 Q501,341.5156 501,341.875 Q501,342.2188 500.6563,342.625 Q500.1563,343.2188 499.3594,343.5469 Q498.3125,344 497.0313,344 Q495.5313,344 494.3281,343.4063 Q493.3594,342.9375 492.6797,341.9219 Q492,340.9063 492,339.7031 L492,338.6094 Q492,337.3594 492.6016,336.2656 Q493.2031,335.1719 494.2578,334.5859 Q495.3125,334 496.5,334 Q497.2188,334 497.8438,334.25 Q498.4688,334.5 499,335 Z "/><text fill="#000000" font-family="sans-serif" font-size="12" lengthAdjust="spacingAndGlyphs" textLength="62" x="511" y="343.4102">GameLoop</text><line style="stroke: #A80036; stroke-width: 1.5;" x1="483" x2="575" y1="354.5" y2="354.5"/><line style="stroke: #A80036; stroke-width: 1.5;" x1="483" x2="575" y1="362.5" y2="362.5"/><text fill="#000000" font-family="sans-serif" font-size="11" lengthAdjust="spacingAndGlyphs" textLength="60" x="488" y="377.9189">handle(long)</text><!--class GameEngine--><rect fill="#FEFECE" filter="url(#f1jkyunh9hhmfy)" height="61.8359" id="GameEngine" style="stroke: #A80036; stroke-width: 1.5;" width="105" x="476.5" y="485"/><ellipse cx="491.5" cy="501" fill="#ADD1B2" rx="11" ry="11" style="stroke: #A80036; stroke-width: 1.0;"/><path d="M493.5,497.5 Q493.7031,497 493.9375,496.75 Q494.1719,496.5 494.4375,496.5 Q494.9063,496.5 495.2031,496.7813 Q495.5,497.0625 495.5,497.7188 L495.5,499.2813 Q495.5,499.9375 495.2188,500.2188 Q494.9375,500.5 494.5,500.5 Q494.1094,500.5 493.8594,500.3281 Q493.6094,500.1563 493.5,499.7031 Q493.4531,499.3906 493.2813,499.2188 Q492.9688,498.8906 492.4063,498.6953 Q491.8438,498.5 491.2813,498.5 Q490.5781,498.5 489.9922,498.7813 Q489.4063,499.0625 488.9531,499.6875 Q488.5,500.3125 488.5,501.1719 L488.5,502.0938 Q488.5,503.125 489.3438,503.8125 Q490.1875,504.5 491.6875,504.5 Q492.5781,504.5 493.2031,504.2969 Q493.5625,504.1875 493.9688,503.8281 Q494.2344,503.625 494.375,503.5625 Q494.5156,503.5 494.6875,503.5 Q495.0156,503.5 495.2578,503.7578 Q495.5,504.0156 495.5,504.375 Q495.5,504.7188 495.1563,505.125 Q494.6563,505.7188 493.8594,506.0469 Q492.8125,506.5 491.5313,506.5 Q490.0313,506.5 488.8281,505.9063 Q487.8594,505.4375 487.1797,504.4219 Q486.5,503.4063 486.5,502.2031 L486.5,501.1094 Q486.5,499.8594 487.1016,498.7656 Q487.7031,497.6719 488.7578,497.0859 Q489.8125,496.5 491,496.5 Q491.7188,496.5 492.3438,496.75 Q492.9688,497 493.5,497.5 Z "/><text fill="#000000" font-family="sans-serif" font-size="12" lengthAdjust="spacingAndGlyphs" textLength="73" x="505.5" y="505.9102">GameEngine</text><line style="stroke: #A80036; stroke-width: 1.5;" x1="477.5" x2="580.5" y1="517" y2="517"/><line style="stroke: #A80036; stroke-width: 1.5;" x1="477.5" x2="580.5" y1="525" y2="525"/><text fill="#000000" font-family="sans-serif" font-size="11" lengthAdjust="spacingAndGlyphs" textLength="61" x="482.5" y="540.4189">update(long)</text><!--class GameSystem--><rect fill="#FEFECE" filter="url(#f1jkyunh9hhmfy)" height="61.8359" id="GameSystem" style="stroke: #A80036; stroke-width: 1.5;" width="107" x="246.5" y="834"/><ellipse cx="261.5" cy="850" fill="#A9DCDF" rx="11" ry="11" style="stroke: #A80036; stroke-width: 1.0;"/><path d="M263.25,851.5 L259.9531,851.5 L259.5156,852.5 L259.5156,852.5 L259.9844,852.5 L260.5,853.125 L260.5,853.5 L260.5,853.875 L259.9844,854.5 L259.5156,854.5 L257.625,854.5 L257.0156,854.5 L256.5,853.875 L256.5,853.5 L256.5,853.125 L257.0156,852.5 L257.625,852.5 L259.9375,846.5 L259.0625,846.5 L258.0156,846.5 L257.5,845.875 L257.5,845.5 L257.5,845.125 L258.0156,844.5 L259.0625,844.5 L262.7344,844.5 L265.4219,852.5 L265.9844,852.5 L265.9844,852.5 L266.5,853.125 L266.5,853.5 L266.5,853.875 L265.9844,854.5 L265.4219,854.5 L263.5313,854.5 L263.0156,854.5 L262.5,853.875 L262.5,853.5 L262.5,853.125 L263.0156,852.5 L263.5313,852.5 L263.5313,852.5 L263.25,851.5 Z M262.7031,849.5 L261.5,845.9219 L260.4688,849.5 L262.7031,849.5 Z "/><text fill="#000000" font-family="sans-serif" font-size="12" font-style="italic" lengthAdjust="spacingAndGlyphs" textLength="75" x="275.5" y="854.9102">GameSystem</text><line style="stroke: #A80036; stroke-width: 1.5;" x1="247.5" x2="352.5" y1="866" y2="866"/><line style="stroke: #A80036; stroke-width: 1.5;" x1="247.5" x2="352.5" y1="874" y2="874"/><text fill="#000000" font-family="sans-serif" font-size="11" lengthAdjust="spacingAndGlyphs" textLength="93" x="252.5" y="889.4189">update(Entity, long)</text><!--class Limiter--><rect fill="#FEFECE" filter="url(#f1jkyunh9hhmfy)" height="61.8359" id="Limiter" style="stroke: #A80036; stroke-width: 1.5;" width="120" x="373" y="663"/><ellipse cx="410.5" cy="679" fill="#ADD1B2" rx="11" ry="11" style="stroke: #A80036; stroke-width: 1.0;"/><path d="M412.5,675.5 Q412.7031,675 412.9375,674.75 Q413.1719,674.5 413.4375,674.5 Q413.9063,674.5 414.2031,674.7813 Q414.5,675.0625 414.5,675.7188 L414.5,677.2813 Q414.5,677.9375 414.2188,678.2188 Q413.9375,678.5 413.5,678.5 Q413.1094,678.5 412.8594,678.3281 Q412.6094,678.1563 412.5,677.7031 Q412.4531,677.3906 412.2813,677.2188 Q411.9688,676.8906 411.4063,676.6953 Q410.8438,676.5 410.2813,676.5 Q409.5781,676.5 408.9922,676.7813 Q408.4063,677.0625 407.9531,677.6875 Q407.5,678.3125 407.5,679.1719 L407.5,680.0938 Q407.5,681.125 408.3438,681.8125 Q409.1875,682.5 410.6875,682.5 Q411.5781,682.5 412.2031,682.2969 Q412.5625,682.1875 412.9688,681.8281 Q413.2344,681.625 413.375,681.5625 Q413.5156,681.5 413.6875,681.5 Q414.0156,681.5 414.2578,681.7578 Q414.5,682.0156 414.5,682.375 Q414.5,682.7188 414.1563,683.125 Q413.6563,683.7188 412.8594,684.0469 Q411.8125,684.5 410.5313,684.5 Q409.0313,684.5 407.8281,683.9063 Q406.8594,683.4375 406.1797,682.4219 Q405.5,681.4063 405.5,680.2031 L405.5,679.1094 Q405.5,677.8594 406.1016,676.7656 Q406.7031,675.6719 407.7578,675.0859 Q408.8125,674.5 410,674.5 Q410.7188,674.5 411.3438,674.75 Q411.9688,675 412.5,675.5 Z "/><text fill="#000000" font-family="sans-serif" font-size="12" lengthAdjust="spacingAndGlyphs" textLength="38" x="429.5" y="683.9102">Limiter</text><line style="stroke: #A80036; stroke-width: 1.5;" x1="374" x2="492" y1="695" y2="695"/><line style="stroke: #A80036; stroke-width: 1.5;" x1="374" x2="492" y1="703" y2="703"/><text fill="#000000" font-family="sans-serif" font-size="11" lengthAdjust="spacingAndGlyphs" textLength="108" x="379" y="718.4189">boolean isReady(long)</text><!--class PerformanceCounter--><rect fill="#FEFECE" filter="url(#f1jkyunh9hhmfy)" height="75.6719" id="PerformanceCounter" style="stroke: #A80036; stroke-width: 1.5;" width="147" x="565.5" y="656"/><ellipse cx="580.5" cy="672" fill="#ADD1B2" rx="11" ry="11" style="stroke: #A80036; stroke-width: 1.0;"/><path d="M582.5,668.5 Q582.7031,668 582.9375,667.75 Q583.1719,667.5 583.4375,667.5 Q583.9063,667.5 584.2031,667.7813 Q584.5,668.0625 584.5,668.7188 L584.5,670.2813 Q584.5,670.9375 584.2188,671.2188 Q583.9375,671.5 583.5,671.5 Q583.1094,671.5 582.8594,671.3281 Q582.6094,671.1563 582.5,670.7031 Q582.4531,670.3906 582.2813,670.2188 Q581.9688,669.8906 581.4063,669.6953 Q580.8438,669.5 580.2813,669.5 Q579.5781,669.5 578.9922,669.7813 Q578.4063,670.0625 577.9531,670.6875 Q577.5,671.3125 577.5,672.1719 L577.5,673.0938 Q577.5,674.125 578.3438,674.8125 Q579.1875,675.5 580.6875,675.5 Q581.5781,675.5 582.2031,675.2969 Q582.5625,675.1875 582.9688,674.8281 Q583.2344,674.625 583.375,674.5625 Q583.5156,674.5 583.6875,674.5 Q584.0156,674.5 584.2578,674.7578 Q584.5,675.0156 584.5,675.375 Q584.5,675.7188 584.1563,676.125 Q583.6563,676.7188 582.8594,677.0469 Q581.8125,677.5 580.5313,677.5 Q579.0313,677.5 577.8281,676.9063 Q576.8594,676.4375 576.1797,675.4219 Q575.5,674.4063 575.5,673.2031 L575.5,672.1094 Q575.5,670.8594 576.1016,669.7656 Q576.7031,668.6719 577.7578,668.0859 Q578.8125,667.5 580,667.5 Q580.7188,667.5 581.3438,667.75 Q581.9688,668 582.5,668.5 Z "/><text fill="#000000" font-family="sans-serif" font-size="12" lengthAdjust="spacingAndGlyphs" textLength="115" x="594.5" y="676.9102">PerformanceCounter</text><line style="stroke: #A80036; stroke-width: 1.5;" x1="566.5" x2="711.5" y1="688" y2="688"/><line style="stroke: #A80036; stroke-width: 1.5;" x1="566.5" x2="711.5" y1="696" y2="696"/><text fill="#000000" font-family="sans-serif" font-size="11" lengthAdjust="spacingAndGlyphs" textLength="30" x="571.5" y="711.4189">start()</text><text fill="#000000" font-family="sans-serif" font-size="11" lengthAdjust="spacingAndGlyphs" textLength="90" x="571.5" y="725.2549">end(GameSystem)</text><!--class Config--><rect fill="#FEFECE" filter="url(#f1jkyunh9hhmfy)" height="48" id="Config" style="stroke: #A80036; stroke-width: 1.5;" width="68" x="644" y="162"/><ellipse cx="659" cy="178" fill="#ADD1B2" rx="11" ry="11" style="stroke: #A80036; stroke-width: 1.0;"/><path d="M661,174.5 Q661.2031,174 661.4375,173.75 Q661.6719,173.5 661.9375,173.5 Q662.4063,173.5 662.7031,173.7813 Q663,174.0625 663,174.7188 L663,176.2813 Q663,176.9375 662.7188,177.2188 Q662.4375,177.5 662,177.5 Q661.6094,177.5 661.3594,177.3281 Q661.1094,177.1563 661,176.7031 Q660.9531,176.3906 660.7813,176.2188 Q660.4688,175.8906 659.9063,175.6953 Q659.3438,175.5 658.7813,175.5 Q658.0781,175.5 657.4922,175.7813 Q656.9063,176.0625 656.4531,176.6875 Q656,177.3125 656,178.1719 L656,179.0938 Q656,180.125 656.8438,180.8125 Q657.6875,181.5 659.1875,181.5 Q660.0781,181.5 660.7031,181.2969 Q661.0625,181.1875 661.4688,180.8281 Q661.7344,180.625 661.875,180.5625 Q662.0156,180.5 662.1875,180.5 Q662.5156,180.5 662.7578,180.7578 Q663,181.0156 663,181.375 Q663,181.7188 662.6563,182.125 Q662.1563,182.7188 661.3594,183.0469 Q660.3125,183.5 659.0313,183.5 Q657.5313,183.5 656.3281,182.9063 Q655.3594,182.4375 654.6797,181.4219 Q654,180.4063 654,179.2031 L654,178.1094 Q654,176.8594 654.6016,175.7656 Q655.2031,174.6719 656.2578,174.0859 Q657.3125,173.5 658.5,173.5 Q659.2188,173.5 659.8438,173.75 Q660.4688,174 661,174.5 Z "/><text fill="#000000" font-family="sans-serif" font-size="12" lengthAdjust="spacingAndGlyphs" textLength="36" x="673" y="182.9102">Config</text><line style="stroke: #A80036; stroke-width: 1.5;" x1="645" x2="711" y1="194" y2="194"/><line style="stroke: #A80036; stroke-width: 1.5;" x1="645" x2="711" y1="202" y2="202"/><!--class Launcher--><rect fill="#FEFECE" filter="url(#f1jkyunh9hhmfy)" height="61.8359" id="Launcher" style="stroke: #A80036; stroke-width: 1.5;" width="84" x="487" y="155"/><ellipse cx="502" cy="171" fill="#A9DCDF" rx="11" ry="11" style="stroke: #A80036; stroke-width: 1.0;"/><path d="M503.75,172.5 L500.4531,172.5 L500.0156,173.5 L500.0156,173.5 L500.4844,173.5 L501,174.125 L501,174.5 L501,174.875 L500.4844,175.5 L500.0156,175.5 L498.125,175.5 L497.5156,175.5 L497,174.875 L497,174.5 L497,174.125 L497.5156,173.5 L498.125,173.5 L500.4375,167.5 L499.5625,167.5 L498.5156,167.5 L498,166.875 L498,166.5 L498,166.125 L498.5156,165.5 L499.5625,165.5 L503.2344,165.5 L505.9219,173.5 L506.4844,173.5 L506.4844,173.5 L507,174.125 L507,174.5 L507,174.875 L506.4844,175.5 L505.9219,175.5 L504.0313,175.5 L503.5156,175.5 L503,174.875 L503,174.5 L503,174.125 L503.5156,173.5 L504.0313,173.5 L504.0313,173.5 L503.75,172.5 Z M503.2031,170.5 L502,166.9219 L500.9688,170.5 L503.2031,170.5 Z "/><text fill="#000000" font-family="sans-serif" font-size="12" font-style="italic" lengthAdjust="spacingAndGlyphs" textLength="52" x="516" y="175.9102">Launcher</text><line style="stroke: #A80036; stroke-width: 1.5;" x1="488" x2="570" y1="187" y2="187"/><line style="stroke: #A80036; stroke-width: 1.5;" x1="488" x2="570" y1="195" y2="195"/><text fill="#000000" font-family="sans-serif" font-size="11" lengthAdjust="spacingAndGlyphs" textLength="58" x="493" y="210.4189">start(Stage)</text><!--class EventBroadcaster--><rect fill="#FEFECE" filter="url(#f1jkyunh9hhmfy)" height="89.5078" id="EventBroadcaster" style="stroke: #A80036; stroke-width: 1.5;" width="158" x="62" y="649"/><ellipse cx="90.05" cy="665" fill="#ADD1B2" rx="11" ry="11" style="stroke: #A80036; stroke-width: 1.0;"/><path d="M92.05,661.5 Q92.2531,661 92.4875,660.75 Q92.7219,660.5 92.9875,660.5 Q93.4563,660.5 93.7531,660.7813 Q94.05,661.0625 94.05,661.7188 L94.05,663.2813 Q94.05,663.9375 93.7688,664.2188 Q93.4875,664.5 93.05,664.5 Q92.6594,664.5 92.4094,664.3281 Q92.1594,664.1563 92.05,663.7031 Q92.0031,663.3906 91.8313,663.2188 Q91.5188,662.8906 90.9563,662.6953 Q90.3938,662.5 89.8313,662.5 Q89.1281,662.5 88.5422,662.7813 Q87.9563,663.0625 87.5031,663.6875 Q87.05,664.3125 87.05,665.1719 L87.05,666.0938 Q87.05,667.125 87.8938,667.8125 Q88.7375,668.5 90.2375,668.5 Q91.1281,668.5 91.7531,668.2969 Q92.1125,668.1875 92.5188,667.8281 Q92.7844,667.625 92.925,667.5625 Q93.0656,667.5 93.2375,667.5 Q93.5656,667.5 93.8078,667.7578 Q94.05,668.0156 94.05,668.375 Q94.05,668.7188 93.7063,669.125 Q93.2063,669.7188 92.4094,670.0469 Q91.3625,670.5 90.0813,670.5 Q88.5813,670.5 87.3781,669.9063 Q86.4094,669.4375 85.7297,668.4219 Q85.05,667.4063 85.05,666.2031 L85.05,665.1094 Q85.05,663.8594 85.6516,662.7656 Q86.2531,661.6719 87.3078,661.0859 Q88.3625,660.5 89.55,660.5 Q90.2688,660.5 90.8938,660.75 Q91.5188,661 92.05,661.5 Z "/><text fill="#000000" font-family="sans-serif" font-size="12" lengthAdjust="spacingAndGlyphs" textLength="97" x="106.95" y="669.9102">EventBroadcaster</text><line style="stroke: #A80036; stroke-width: 1.5;" x1="63" x2="219" y1="681" y2="681"/><line style="stroke: #A80036; stroke-width: 1.5;" x1="63" x2="219" y1="689" y2="689"/><text fill="#000000" font-family="sans-serif" font-size="11" lengthAdjust="spacingAndGlyphs" textLength="146" x="68" y="704.4189">register(String, Consumer&lt;?&gt;)</text><text fill="#000000" font-family="sans-serif" font-size="11" lengthAdjust="spacingAndGlyphs" textLength="115" x="68" y="718.2549">enqueue(String, Object)</text><text fill="#000000" font-family="sans-serif" font-size="11" lengthAdjust="spacingAndGlyphs" textLength="71" x="68" y="732.0908">int broadcast()</text><!--class Entity--><rect fill="#FEFECE" filter="url(#f1jkyunh9hhmfy)" height="48" id="Entity" style="stroke: #A80036; stroke-width: 1.5;" width="61" x="464.5" y="974"/><ellipse cx="479.5" cy="990" fill="#ADD1B2" rx="11" ry="11" style="stroke: #A80036; stroke-width: 1.0;"/><path d="M481.5,986.5 Q481.7031,986 481.9375,985.75 Q482.1719,985.5 482.4375,985.5 Q482.9063,985.5 483.2031,985.7813 Q483.5,986.0625 483.5,986.7188 L483.5,988.2813 Q483.5,988.9375 483.2188,989.2188 Q482.9375,989.5 482.5,989.5 Q482.1094,989.5 481.8594,989.3281 Q481.6094,989.1563 481.5,988.7031 Q481.4531,988.3906 481.2813,988.2188 Q480.9688,987.8906 480.4063,987.6953 Q479.8438,987.5 479.2813,987.5 Q478.5781,987.5 477.9922,987.7813 Q477.4063,988.0625 476.9531,988.6875 Q476.5,989.3125 476.5,990.1719 L476.5,991.0938 Q476.5,992.125 477.3438,992.8125 Q478.1875,993.5 479.6875,993.5 Q480.5781,993.5 481.2031,993.2969 Q481.5625,993.1875 481.9688,992.8281 Q482.2344,992.625 482.375,992.5625 Q482.5156,992.5 482.6875,992.5 Q483.0156,992.5 483.2578,992.7578 Q483.5,993.0156 483.5,993.375 Q483.5,993.7188 483.1563,994.125 Q482.6563,994.7188 481.8594,995.0469 Q480.8125,995.5 479.5313,995.5 Q478.0313,995.5 476.8281,994.9063 Q475.8594,994.4375 475.1797,993.4219 Q474.5,992.4063 474.5,991.2031 L474.5,990.1094 Q474.5,988.8594 475.1016,987.7656 Q475.7031,986.6719 476.7578,986.0859 Q477.8125,985.5 479,985.5 Q479.7188,985.5 480.3438,985.75 Q480.9688,986 481.5,986.5 Z "/><text fill="#000000" font-family="sans-serif" font-size="12" lengthAdjust="spacingAndGlyphs" textLength="29" x="493.5" y="994.9102">Entity</text><line style="stroke: #A80036; stroke-width: 1.5;" x1="465.5" x2="524.5" y1="1006" y2="1006"/><line style="stroke: #A80036; stroke-width: 1.5;" x1="465.5" x2="524.5" y1="1014" y2="1014"/><!--class EntityPool--><rect fill="#FEFECE" filter="url(#f1jkyunh9hhmfy)" height="48" id="EntityPool" style="stroke: #A80036; stroke-width: 1.5;" width="86" x="617" y="841"/><ellipse cx="632" cy="857" fill="#ADD1B2" rx="11" ry="11" style="stroke: #A80036; stroke-width: 1.0;"/><path d="M634,853.5 Q634.2031,853 634.4375,852.75 Q634.6719,852.5 634.9375,852.5 Q635.4063,852.5 635.7031,852.7813 Q636,853.0625 636,853.7188 L636,855.2813 Q636,855.9375 635.7188,856.2188 Q635.4375,856.5 635,856.5 Q634.6094,856.5 634.3594,856.3281 Q634.1094,856.1563 634,855.7031 Q633.9531,855.3906 633.7813,855.2188 Q633.4688,854.8906 632.9063,854.6953 Q632.3438,854.5 631.7813,854.5 Q631.0781,854.5 630.4922,854.7813 Q629.9063,855.0625 629.4531,855.6875 Q629,856.3125 629,857.1719 L629,858.0938 Q629,859.125 629.8438,859.8125 Q630.6875,860.5 632.1875,860.5 Q633.0781,860.5 633.7031,860.2969 Q634.0625,860.1875 634.4688,859.8281 Q634.7344,859.625 634.875,859.5625 Q635.0156,859.5 635.1875,859.5 Q635.5156,859.5 635.7578,859.7578 Q636,860.0156 636,860.375 Q636,860.7188 635.6563,861.125 Q635.1563,861.7188 634.3594,862.0469 Q633.3125,862.5 632.0313,862.5 Q630.5313,862.5 629.3281,861.9063 Q628.3594,861.4375 627.6797,860.4219 Q627,859.4063 627,858.2031 L627,857.1094 Q627,855.8594 627.6016,854.7656 Q628.2031,853.6719 629.2578,853.0859 Q630.3125,852.5 631.5,852.5 Q632.2188,852.5 632.8438,852.75 Q633.4688,853 634,853.5 Z "/><text fill="#000000" font-family="sans-serif" font-size="12" lengthAdjust="spacingAndGlyphs" textLength="54" x="646" y="861.9102">EntityPool</text><line style="stroke: #A80036; stroke-width: 1.5;" x1="618" x2="702" y1="873" y2="873"/><line style="stroke: #A80036; stroke-width: 1.5;" x1="618" x2="702" y1="881" y2="881"/><!--class Signature--><rect fill="#FEFECE" filter="url(#f1jkyunh9hhmfy)" height="61.8359" id="Signature" style="stroke: #A80036; stroke-width: 1.5;" width="138" x="386" y="1083"/><ellipse cx="424.85" cy="1099" fill="#ADD1B2" rx="11" ry="11" style="stroke: #A80036; stroke-width: 1.0;"/><path d="M426.85,1095.5 Q427.0531,1095 427.2875,1094.75 Q427.5219,1094.5 427.7875,1094.5 Q428.2563,1094.5 428.5531,1094.7813 Q428.85,1095.0625 428.85,1095.7188 L428.85,1097.2813 Q428.85,1097.9375 428.5688,1098.2188 Q428.2875,1098.5 427.85,1098.5 Q427.4594,1098.5 427.2094,1098.3281 Q426.9594,1098.1563 426.85,1097.7031 Q426.8031,1097.3906 426.6313,1097.2188 Q426.3188,1096.8906 425.7563,1096.6953 Q425.1938,1096.5 424.6313,1096.5 Q423.9281,1096.5 423.3422,1096.7813 Q422.7563,1097.0625 422.3031,1097.6875 Q421.85,1098.3125 421.85,1099.1719 L421.85,1100.0938 Q421.85,1101.125 422.6938,1101.8125 Q423.5375,1102.5 425.0375,1102.5 Q425.9281,1102.5 426.5531,1102.2969 Q426.9125,1102.1875 427.3188,1101.8281 Q427.5844,1101.625 427.725,1101.5625 Q427.8656,1101.5 428.0375,1101.5 Q428.3656,1101.5 428.6078,1101.7578 Q428.85,1102.0156 428.85,1102.375 Q428.85,1102.7188 428.5063,1103.125 Q428.0063,1103.7188 427.2094,1104.0469 Q426.1625,1104.5 424.8813,1104.5 Q423.3813,1104.5 422.1781,1103.9063 Q421.2094,1103.4375 420.5297,1102.4219 Q419.85,1101.4063 419.85,1100.2031 L419.85,1099.1094 Q419.85,1097.8594 420.4516,1096.7656 Q421.0531,1095.6719 422.1078,1095.0859 Q423.1625,1094.5 424.35,1094.5 Q425.0688,1094.5 425.6938,1094.75 Q426.3188,1095 426.85,1095.5 Z "/><text fill="#000000" font-family="sans-serif" font-size="12" lengthAdjust="spacingAndGlyphs" textLength="53" x="444.15" y="1103.9102">Signature</text><line style="stroke: #A80036; stroke-width: 1.5;" x1="387" x2="523" y1="1115" y2="1115"/><line style="stroke: #A80036; stroke-width: 1.5;" x1="387" x2="523" y1="1123" y2="1123"/><text fill="#000000" font-family="sans-serif" font-size="11" lengthAdjust="spacingAndGlyphs" textLength="126" x="392" y="1138.4189">boolean masks(Signature)</text><!--class Component--><rect fill="#FEFECE" filter="url(#f1jkyunh9hhmfy)" height="48" id="Component" style="stroke: #A80036; stroke-width: 1.5;" width="97" x="628.5" y="1090"/><ellipse cx="643.5" cy="1106" fill="#ADD1B2" rx="11" ry="11" style="stroke: #A80036; stroke-width: 1.0;"/><path d="M645.5,1102.5 Q645.7031,1102 645.9375,1101.75 Q646.1719,1101.5 646.4375,1101.5 Q646.9063,1101.5 647.2031,1101.7813 Q647.5,1102.0625 647.5,1102.7188 L647.5,1104.2813 Q647.5,1104.9375 647.2188,1105.2188 Q646.9375,1105.5 646.5,1105.5 Q646.1094,1105.5 645.8594,1105.3281 Q645.6094,1105.1563 645.5,1104.7031 Q645.4531,1104.3906 645.2813,1104.2188 Q644.9688,1103.8906 644.4063,1103.6953 Q643.8438,1103.5 643.2813,1103.5 Q642.5781,1103.5 641.9922,1103.7813 Q641.4063,1104.0625 640.9531,1104.6875 Q640.5,1105.3125 640.5,1106.1719 L640.5,1107.0938 Q640.5,1108.125 641.3438,1108.8125 Q642.1875,1109.5 643.6875,1109.5 Q644.5781,1109.5 645.2031,1109.2969 Q645.5625,1109.1875 645.9688,1108.8281 Q646.2344,1108.625 646.375,1108.5625 Q646.5156,1108.5 646.6875,1108.5 Q647.0156,1108.5 647.2578,1108.7578 Q647.5,1109.0156 647.5,1109.375 Q647.5,1109.7188 647.1563,1110.125 Q646.6563,1110.7188 645.8594,1111.0469 Q644.8125,1111.5 643.5313,1111.5 Q642.0313,1111.5 640.8281,1110.9063 Q639.8594,1110.4375 639.1797,1109.4219 Q638.5,1108.4063 638.5,1107.2031 L638.5,1106.1094 Q638.5,1104.8594 639.1016,1103.7656 Q639.7031,1102.6719 640.7578,1102.0859 Q641.8125,1101.5 643,1101.5 Q643.7188,1101.5 644.3438,1101.75 Q644.9688,1102 645.5,1102.5 Z "/><text fill="#000000" font-family="sans-serif" font-size="12" lengthAdjust="spacingAndGlyphs" textLength="65" x="657.5" y="1110.9102">Component</text><line style="stroke: #A80036; stroke-width: 1.5;" x1="629.5" x2="724.5" y1="1122" y2="1122"/><line style="stroke: #A80036; stroke-width: 1.5;" x1="629.5" x2="724.5" y1="1130" y2="1130"/><!--class Camera--><rect fill="#FEFECE" filter="url(#f1jkyunh9hhmfy)" height="75.6719" id="Camera" style="stroke: #A80036; stroke-width: 1.5;" width="184" x="3061" y="148"/><ellipse cx="3126.25" cy="164" fill="#ADD1B2" rx="11" ry="11" style="stroke: #A80036; stroke-width: 1.0;"/><path d="M3128.25,160.5 Q3128.4531,160 3128.6875,159.75 Q3128.9219,159.5 3129.1875,159.5 Q3129.6563,159.5 3129.9531,159.7813 Q3130.25,160.0625 3130.25,160.7188 L3130.25,162.2813 Q3130.25,162.9375 3129.9688,163.2188 Q3129.6875,163.5 3129.25,163.5 Q3128.8594,163.5 3128.6094,163.3281 Q3128.3594,163.1563 3128.25,162.7031 Q3128.2031,162.3906 3128.0313,162.2188 Q3127.7188,161.8906 3127.1563,161.6953 Q3126.5938,161.5 3126.0313,161.5 Q3125.3281,161.5 3124.7422,161.7813 Q3124.1563,162.0625 3123.7031,162.6875 Q3123.25,163.3125 3123.25,164.1719 L3123.25,165.0938 Q3123.25,166.125 3124.0938,166.8125 Q3124.9375,167.5 3126.4375,167.5 Q3127.3281,167.5 3127.9531,167.2969 Q3128.3125,167.1875 3128.7188,166.8281 Q3128.9844,166.625 3129.125,166.5625 Q3129.2656,166.5 3129.4375,166.5 Q3129.7656,166.5 3130.0078,166.7578 Q3130.25,167.0156 3130.25,167.375 Q3130.25,167.7188 3129.9063,168.125 Q3129.4063,168.7188 3128.6094,169.0469 Q3127.5625,169.5 3126.2813,169.5 Q3124.7813,169.5 3123.5781,168.9063 Q3122.6094,168.4375 3121.9297,167.4219 Q3121.25,166.4063 3121.25,165.2031 L3121.25,164.1094 Q3121.25,162.8594 3121.8516,161.7656 Q3122.4531,160.6719 3123.5078,160.0859 Q3124.5625,159.5 3125.75,159.5 Q3126.4688,159.5 3127.0938,159.75 Q3127.7188,160 3128.25,160.5 Z "/><text fill="#000000" font-family="sans-serif" font-size="12" lengthAdjust="spacingAndGlyphs" textLength="45" x="3146.75" y="168.9102">Camera</text><line style="stroke: #A80036; stroke-width: 1.5;" x1="3062" x2="3244" y1="180" y2="180"/><line style="stroke: #A80036; stroke-width: 1.5;" x1="3062" x2="3244" y1="188" y2="188"/><text fill="#000000" font-family="sans-serif" font-size="11" lengthAdjust="spacingAndGlyphs" textLength="172" x="3067" y="203.4189">Vector getAbsolutePosition(Vector)</text><text fill="#000000" font-family="sans-serif" font-size="11" lengthAdjust="spacingAndGlyphs" textLength="167" x="3067" y="217.2549">Vector getRelativePosition(Vector)</text><!--class CompositeImage--><rect fill="#FEFECE" filter="url(#f1jkyunh9hhmfy)" height="48" id="CompositeImage" style="stroke: #A80036; stroke-width: 1.5;" width="128" x="2916" y="329.5"/><ellipse cx="2931" cy="345.5" fill="#ADD1B2" rx="11" ry="11" style="stroke: #A80036; stroke-width: 1.0;"/><path d="M2933,342 Q2933.2031,341.5 2933.4375,341.25 Q2933.6719,341 2933.9375,341 Q2934.4063,341 2934.7031,341.2813 Q2935,341.5625 2935,342.2188 L2935,343.7813 Q2935,344.4375 2934.7188,344.7188 Q2934.4375,345 2934,345 Q2933.6094,345 2933.3594,344.8281 Q2933.1094,344.6563 2933,344.2031 Q2932.9531,343.8906 2932.7813,343.7188 Q2932.4688,343.3906 2931.9063,343.1953 Q2931.3438,343 2930.7813,343 Q2930.0781,343 2929.4922,343.2813 Q2928.9063,343.5625 2928.4531,344.1875 Q2928,344.8125 2928,345.6719 L2928,346.5938 Q2928,347.625 2928.8438,348.3125 Q2929.6875,349 2931.1875,349 Q2932.0781,349 2932.7031,348.7969 Q2933.0625,348.6875 2933.4688,348.3281 Q2933.7344,348.125 2933.875,348.0625 Q2934.0156,348 2934.1875,348 Q2934.5156,348 2934.7578,348.2578 Q2935,348.5156 2935,348.875 Q2935,349.2188 2934.6563,349.625 Q2934.1563,350.2188 2933.3594,350.5469 Q2932.3125,351 2931.0313,351 Q2929.5313,351 2928.3281,350.4063 Q2927.3594,349.9375 2926.6797,348.9219 Q2926,347.9063 2926,346.7031 L2926,345.6094 Q2926,344.3594 2926.6016,343.2656 Q2927.2031,342.1719 2928.2578,341.5859 Q2929.3125,341 2930.5,341 Q2931.2188,341 2931.8438,341.25 Q2932.4688,341.5 2933,342 Z "/><text fill="#000000" font-family="sans-serif" font-size="12" lengthAdjust="spacingAndGlyphs" textLength="96" x="2945" y="350.4102">CompositeImage</text><line style="stroke: #A80036; stroke-width: 1.5;" x1="2917" x2="3043" y1="361.5" y2="361.5"/><line style="stroke: #A80036; stroke-width: 1.5;" x1="2917" x2="3043" y1="369.5" y2="369.5"/><!--class ImagePool--><rect fill="#FEFECE" filter="url(#f1jkyunh9hhmfy)" height="61.8359" id="ImagePool" style="stroke: #A80036; stroke-width: 1.5;" width="92" x="2934" y="155"/><ellipse cx="2949" cy="171" fill="#ADD1B2" rx="11" ry="11" style="stroke: #A80036; stroke-width: 1.0;"/><path d="M2951,167.5 Q2951.2031,167 2951.4375,166.75 Q2951.6719,166.5 2951.9375,166.5 Q2952.4063,166.5 2952.7031,166.7813 Q2953,167.0625 2953,167.7188 L2953,169.2813 Q2953,169.9375 2952.7188,170.2188 Q2952.4375,170.5 2952,170.5 Q2951.6094,170.5 2951.3594,170.3281 Q2951.1094,170.1563 2951,169.7031 Q2950.9531,169.3906 2950.7813,169.2188 Q2950.4688,168.8906 2949.9063,168.6953 Q2949.3438,168.5 2948.7813,168.5 Q2948.0781,168.5 2947.4922,168.7813 Q2946.9063,169.0625 2946.4531,169.6875 Q2946,170.3125 2946,171.1719 L2946,172.0938 Q2946,173.125 2946.8438,173.8125 Q2947.6875,174.5 2949.1875,174.5 Q2950.0781,174.5 2950.7031,174.2969 Q2951.0625,174.1875 2951.4688,173.8281 Q2951.7344,173.625 2951.875,173.5625 Q2952.0156,173.5 2952.1875,173.5 Q2952.5156,173.5 2952.7578,173.7578 Q2953,174.0156 2953,174.375 Q2953,174.7188 2952.6563,175.125 Q2952.1563,175.7188 2951.3594,176.0469 Q2950.3125,176.5 2949.0313,176.5 Q2947.5313,176.5 2946.3281,175.9063 Q2945.3594,175.4375 2944.6797,174.4219 Q2944,173.4063 2944,172.2031 L2944,171.1094 Q2944,169.8594 2944.6016,168.7656 Q2945.2031,167.6719 2946.2578,167.0859 Q2947.3125,166.5 2948.5,166.5 Q2949.2188,166.5 2949.8438,166.75 Q2950.4688,167 2951,167.5 Z "/><text fill="#000000" font-family="sans-serif" font-size="12" lengthAdjust="spacingAndGlyphs" textLength="60" x="2963" y="175.9102">ImagePool</text><line style="stroke: #A80036; stroke-width: 1.5;" x1="2935" x2="3025" y1="187" y2="187"/><line style="stroke: #A80036; stroke-width: 1.5;" x1="2935" x2="3025" y1="195" y2="195"/><text fill="#000000" font-family="sans-serif" font-size="11" lengthAdjust="spacingAndGlyphs" textLength="72" x="2940" y="210.4189">put(Properties)</text><!--class SoundPool--><rect fill="#FEFECE" filter="url(#f1jkyunh9hhmfy)" height="61.8359" id="SoundPool" style="stroke: #A80036; stroke-width: 1.5;" width="93" x="2805.5" y="155"/><ellipse cx="2820.5" cy="171" fill="#ADD1B2" rx="11" ry="11" style="stroke: #A80036; stroke-width: 1.0;"/><path d="M2822.5,167.5 Q2822.7031,167 2822.9375,166.75 Q2823.1719,166.5 2823.4375,166.5 Q2823.9063,166.5 2824.2031,166.7813 Q2824.5,167.0625 2824.5,167.7188 L2824.5,169.2813 Q2824.5,169.9375 2824.2188,170.2188 Q2823.9375,170.5 2823.5,170.5 Q2823.1094,170.5 2822.8594,170.3281 Q2822.6094,170.1563 2822.5,169.7031 Q2822.4531,169.3906 2822.2813,169.2188 Q2821.9688,168.8906 2821.4063,168.6953 Q2820.8438,168.5 2820.2813,168.5 Q2819.5781,168.5 2818.9922,168.7813 Q2818.4063,169.0625 2817.9531,169.6875 Q2817.5,170.3125 2817.5,171.1719 L2817.5,172.0938 Q2817.5,173.125 2818.3438,173.8125 Q2819.1875,174.5 2820.6875,174.5 Q2821.5781,174.5 2822.2031,174.2969 Q2822.5625,174.1875 2822.9688,173.8281 Q2823.2344,173.625 2823.375,173.5625 Q2823.5156,173.5 2823.6875,173.5 Q2824.0156,173.5 2824.2578,173.7578 Q2824.5,174.0156 2824.5,174.375 Q2824.5,174.7188 2824.1563,175.125 Q2823.6563,175.7188 2822.8594,176.0469 Q2821.8125,176.5 2820.5313,176.5 Q2819.0313,176.5 2817.8281,175.9063 Q2816.8594,175.4375 2816.1797,174.4219 Q2815.5,173.4063 2815.5,172.2031 L2815.5,171.1094 Q2815.5,169.8594 2816.1016,168.7656 Q2816.7031,167.6719 2817.7578,167.0859 Q2818.8125,166.5 2820,166.5 Q2820.7188,166.5 2821.3438,166.75 Q2821.9688,167 2822.5,167.5 Z "/><text fill="#000000" font-family="sans-serif" font-size="12" lengthAdjust="spacingAndGlyphs" textLength="61" x="2834.5" y="175.9102">SoundPool</text><line style="stroke: #A80036; stroke-width: 1.5;" x1="2806.5" x2="2897.5" y1="187" y2="187"/><line style="stroke: #A80036; stroke-width: 1.5;" x1="2806.5" x2="2897.5" y1="195" y2="195"/><text fill="#000000" font-family="sans-serif" font-size="11" lengthAdjust="spacingAndGlyphs" textLength="72" x="2811.5" y="210.4189">put(Properties)</text><!--class Action--><rect fill="#FEFECE" filter="url(#f1jkyunh9hhmfy)" height="61.8359" id="Action" style="stroke: #A80036; stroke-width: 1.5;" width="203" x="2531.5" y="485"/><ellipse cx="2612.25" cy="501" fill="#ADD1B2" rx="11" ry="11" style="stroke: #A80036; stroke-width: 1.0;"/><path d="M2614.25,497.5 Q2614.4531,497 2614.6875,496.75 Q2614.9219,496.5 2615.1875,496.5 Q2615.6563,496.5 2615.9531,496.7813 Q2616.25,497.0625 2616.25,497.7188 L2616.25,499.2813 Q2616.25,499.9375 2615.9688,500.2188 Q2615.6875,500.5 2615.25,500.5 Q2614.8594,500.5 2614.6094,500.3281 Q2614.3594,500.1563 2614.25,499.7031 Q2614.2031,499.3906 2614.0313,499.2188 Q2613.7188,498.8906 2613.1563,498.6953 Q2612.5938,498.5 2612.0313,498.5 Q2611.3281,498.5 2610.7422,498.7813 Q2610.1563,499.0625 2609.7031,499.6875 Q2609.25,500.3125 2609.25,501.1719 L2609.25,502.0938 Q2609.25,503.125 2610.0938,503.8125 Q2610.9375,504.5 2612.4375,504.5 Q2613.3281,504.5 2613.9531,504.2969 Q2614.3125,504.1875 2614.7188,503.8281 Q2614.9844,503.625 2615.125,503.5625 Q2615.2656,503.5 2615.4375,503.5 Q2615.7656,503.5 2616.0078,503.7578 Q2616.25,504.0156 2616.25,504.375 Q2616.25,504.7188 2615.9063,505.125 Q2615.4063,505.7188 2614.6094,506.0469 Q2613.5625,506.5 2612.2813,506.5 Q2610.7813,506.5 2609.5781,505.9063 Q2608.6094,505.4375 2607.9297,504.4219 Q2607.25,503.4063 2607.25,502.2031 L2607.25,501.1094 Q2607.25,499.8594 2607.8516,498.7656 Q2608.4531,497.6719 2609.5078,497.0859 Q2610.5625,496.5 2611.75,496.5 Q2612.4688,496.5 2613.0938,496.75 Q2613.7188,497 2614.25,497.5 Z "/><text fill="#000000" font-family="sans-serif" font-size="12" lengthAdjust="spacingAndGlyphs" textLength="33" x="2632.75" y="505.9102">Action</text><line style="stroke: #A80036; stroke-width: 1.5;" x1="2532.5" x2="2733.5" y1="517" y2="517"/><line style="stroke: #A80036; stroke-width: 1.5;" x1="2532.5" x2="2733.5" y1="525" y2="525"/><text fill="#000000" font-family="sans-serif" font-size="11" lengthAdjust="spacingAndGlyphs" textLength="191" x="2537.5" y="540.4189">Consumer&lt;Entity&gt; signal(boolean, float)</text><!--class KeyAction--><rect fill="#FEFECE" filter="url(#f1jkyunh9hhmfy)" height="61.8359" id="KeyAction" style="stroke: #A80036; stroke-width: 1.5;" width="237" x="2474.5" y="322.5"/><ellipse cx="2562.25" cy="338.5" fill="#ADD1B2" rx="11" ry="11" style="stroke: #A80036; stroke-width: 1.0;"/><path d="M2564.25,335 Q2564.4531,334.5 2564.6875,334.25 Q2564.9219,334 2565.1875,334 Q2565.6563,334 2565.9531,334.2813 Q2566.25,334.5625 2566.25,335.2188 L2566.25,336.7813 Q2566.25,337.4375 2565.9688,337.7188 Q2565.6875,338 2565.25,338 Q2564.8594,338 2564.6094,337.8281 Q2564.3594,337.6563 2564.25,337.2031 Q2564.2031,336.8906 2564.0313,336.7188 Q2563.7188,336.3906 2563.1563,336.1953 Q2562.5938,336 2562.0313,336 Q2561.3281,336 2560.7422,336.2813 Q2560.1563,336.5625 2559.7031,337.1875 Q2559.25,337.8125 2559.25,338.6719 L2559.25,339.5938 Q2559.25,340.625 2560.0938,341.3125 Q2560.9375,342 2562.4375,342 Q2563.3281,342 2563.9531,341.7969 Q2564.3125,341.6875 2564.7188,341.3281 Q2564.9844,341.125 2565.125,341.0625 Q2565.2656,341 2565.4375,341 Q2565.7656,341 2566.0078,341.2578 Q2566.25,341.5156 2566.25,341.875 Q2566.25,342.2188 2565.9063,342.625 Q2565.4063,343.2188 2564.6094,343.5469 Q2563.5625,344 2562.2813,344 Q2560.7813,344 2559.5781,343.4063 Q2558.6094,342.9375 2557.9297,341.9219 Q2557.25,340.9063 2557.25,339.7031 L2557.25,338.6094 Q2557.25,337.3594 2557.8516,336.2656 Q2558.4531,335.1719 2559.5078,334.5859 Q2560.5625,334 2561.75,334 Q2562.4688,334 2563.0938,334.25 Q2563.7188,334.5 2564.25,335 Z "/><text fill="#000000" font-family="sans-serif" font-size="12" lengthAdjust="spacingAndGlyphs" textLength="53" x="2582.75" y="343.4102">KeyAction</text><line style="stroke: #A80036; stroke-width: 1.5;" x1="2475.5" x2="2710.5" y1="354.5" y2="354.5"/><line style="stroke: #A80036; stroke-width: 1.5;" x1="2475.5" x2="2710.5" y1="362.5" y2="362.5"/><text fill="#000000" font-family="sans-serif" font-size="11" lengthAdjust="spacingAndGlyphs" textLength="225" x="2480.5" y="377.9189">Consumer&lt;Entity&gt; signal(Set&lt;Enum&lt;?&gt;&gt;, float)</text><!--class ActionPool--><rect fill="#FEFECE" filter="url(#f1jkyunh9hhmfy)" height="75.6719" id="ActionPool" style="stroke: #A80036; stroke-width: 1.5;" width="228" x="2500" y="148"/><ellipse cx="2580.75" cy="164" fill="#ADD1B2" rx="11" ry="11" style="stroke: #A80036; stroke-width: 1.0;"/><path d="M2582.75,160.5 Q2582.9531,160 2583.1875,159.75 Q2583.4219,159.5 2583.6875,159.5 Q2584.1563,159.5 2584.4531,159.7813 Q2584.75,160.0625 2584.75,160.7188 L2584.75,162.2813 Q2584.75,162.9375 2584.4688,163.2188 Q2584.1875,163.5 2583.75,163.5 Q2583.3594,163.5 2583.1094,163.3281 Q2582.8594,163.1563 2582.75,162.7031 Q2582.7031,162.3906 2582.5313,162.2188 Q2582.2188,161.8906 2581.6563,161.6953 Q2581.0938,161.5 2580.5313,161.5 Q2579.8281,161.5 2579.2422,161.7813 Q2578.6563,162.0625 2578.2031,162.6875 Q2577.75,163.3125 2577.75,164.1719 L2577.75,165.0938 Q2577.75,166.125 2578.5938,166.8125 Q2579.4375,167.5 2580.9375,167.5 Q2581.8281,167.5 2582.4531,167.2969 Q2582.8125,167.1875 2583.2188,166.8281 Q2583.4844,166.625 2583.625,166.5625 Q2583.7656,166.5 2583.9375,166.5 Q2584.2656,166.5 2584.5078,166.7578 Q2584.75,167.0156 2584.75,167.375 Q2584.75,167.7188 2584.4063,168.125 Q2583.9063,168.7188 2583.1094,169.0469 Q2582.0625,169.5 2580.7813,169.5 Q2579.2813,169.5 2578.0781,168.9063 Q2577.1094,168.4375 2576.4297,167.4219 Q2575.75,166.4063 2575.75,165.2031 L2575.75,164.1094 Q2575.75,162.8594 2576.3516,161.7656 Q2576.9531,160.6719 2578.0078,160.0859 Q2579.0625,159.5 2580.25,159.5 Q2580.9688,159.5 2581.5938,159.75 Q2582.2188,160 2582.75,160.5 Z "/><text fill="#000000" font-family="sans-serif" font-size="12" lengthAdjust="spacingAndGlyphs" textLength="58" x="2601.25" y="168.9102">ActionPool</text><line style="stroke: #A80036; stroke-width: 1.5;" x1="2501" x2="2727" y1="180" y2="180"/><line style="stroke: #A80036; stroke-width: 1.5;" x1="2501" x2="2727" y1="188" y2="188"/><text fill="#000000" font-family="sans-serif" font-size="11" lengthAdjust="spacingAndGlyphs" textLength="72" x="2506" y="203.4189">put(Properties)</text><text fill="#000000" font-family="sans-serif" font-size="11" lengthAdjust="spacingAndGlyphs" textLength="216" x="2506" y="217.2549">Iterable&lt;KeyAction&gt; parseConfig(Properties)</text><!--class Vector--><rect fill="#FEFECE" filter="url(#f1jkyunh9hhmfy)" height="48" id="Vector" style="stroke: #A80036; stroke-width: 1.5;" width="66" x="2169" y="162"/><ellipse cx="2184" cy="178" fill="#ADD1B2" rx="11" ry="11" style="stroke: #A80036; stroke-width: 1.0;"/><path d="M2186,174.5 Q2186.2031,174 2186.4375,173.75 Q2186.6719,173.5 2186.9375,173.5 Q2187.4063,173.5 2187.7031,173.7813 Q2188,174.0625 2188,174.7188 L2188,176.2813 Q2188,176.9375 2187.7188,177.2188 Q2187.4375,177.5 2187,177.5 Q2186.6094,177.5 2186.3594,177.3281 Q2186.1094,177.1563 2186,176.7031 Q2185.9531,176.3906 2185.7813,176.2188 Q2185.4688,175.8906 2184.9063,175.6953 Q2184.3438,175.5 2183.7813,175.5 Q2183.0781,175.5 2182.4922,175.7813 Q2181.9063,176.0625 2181.4531,176.6875 Q2181,177.3125 2181,178.1719 L2181,179.0938 Q2181,180.125 2181.8438,180.8125 Q2182.6875,181.5 2184.1875,181.5 Q2185.0781,181.5 2185.7031,181.2969 Q2186.0625,181.1875 2186.4688,180.8281 Q2186.7344,180.625 2186.875,180.5625 Q2187.0156,180.5 2187.1875,180.5 Q2187.5156,180.5 2187.7578,180.7578 Q2188,181.0156 2188,181.375 Q2188,181.7188 2187.6563,182.125 Q2187.1563,182.7188 2186.3594,183.0469 Q2185.3125,183.5 2184.0313,183.5 Q2182.5313,183.5 2181.3281,182.9063 Q2180.3594,182.4375 2179.6797,181.4219 Q2179,180.4063 2179,179.2031 L2179,178.1094 Q2179,176.8594 2179.6016,175.7656 Q2180.2031,174.6719 2181.2578,174.0859 Q2182.3125,173.5 2183.5,173.5 Q2184.2188,173.5 2184.8438,173.75 Q2185.4688,174 2186,174.5 Z "/><text fill="#000000" font-family="sans-serif" font-size="12" lengthAdjust="spacingAndGlyphs" textLength="34" x="2198" y="182.9102">Vector</text><line style="stroke: #A80036; stroke-width: 1.5;" x1="2170" x2="2234" y1="194" y2="194"/><line style="stroke: #A80036; stroke-width: 1.5;" x1="2170" x2="2234" y1="202" y2="202"/><!--class WeightedDistribution--><rect fill="#FEFECE" filter="url(#f1jkyunh9hhmfy)" height="48" id="WeightedDistribution" style="stroke: #A80036; stroke-width: 1.5;" width="147" x="2270.5" y="162"/><ellipse cx="2285.5" cy="178" fill="#ADD1B2" rx="11" ry="11" style="stroke: #A80036; stroke-width: 1.0;"/><path d="M2287.5,174.5 Q2287.7031,174 2287.9375,173.75 Q2288.1719,173.5 2288.4375,173.5 Q2288.9063,173.5 2289.2031,173.7813 Q2289.5,174.0625 2289.5,174.7188 L2289.5,176.2813 Q2289.5,176.9375 2289.2188,177.2188 Q2288.9375,177.5 2288.5,177.5 Q2288.1094,177.5 2287.8594,177.3281 Q2287.6094,177.1563 2287.5,176.7031 Q2287.4531,176.3906 2287.2813,176.2188 Q2286.9688,175.8906 2286.4063,175.6953 Q2285.8438,175.5 2285.2813,175.5 Q2284.5781,175.5 2283.9922,175.7813 Q2283.4063,176.0625 2282.9531,176.6875 Q2282.5,177.3125 2282.5,178.1719 L2282.5,179.0938 Q2282.5,180.125 2283.3438,180.8125 Q2284.1875,181.5 2285.6875,181.5 Q2286.5781,181.5 2287.2031,181.2969 Q2287.5625,181.1875 2287.9688,180.8281 Q2288.2344,180.625 2288.375,180.5625 Q2288.5156,180.5 2288.6875,180.5 Q2289.0156,180.5 2289.2578,180.7578 Q2289.5,181.0156 2289.5,181.375 Q2289.5,181.7188 2289.1563,182.125 Q2288.6563,182.7188 2287.8594,183.0469 Q2286.8125,183.5 2285.5313,183.5 Q2284.0313,183.5 2282.8281,182.9063 Q2281.8594,182.4375 2281.1797,181.4219 Q2280.5,180.4063 2280.5,179.2031 L2280.5,178.1094 Q2280.5,176.8594 2281.1016,175.7656 Q2281.7031,174.6719 2282.7578,174.0859 Q2283.8125,173.5 2285,173.5 Q2285.7188,173.5 2286.3438,173.75 Q2286.9688,174 2287.5,174.5 Z "/><text fill="#000000" font-family="sans-serif" font-size="12" lengthAdjust="spacingAndGlyphs" textLength="115" x="2299.5" y="182.9102">WeightedDistribution</text><line style="stroke: #A80036; stroke-width: 1.5;" x1="2271.5" x2="2416.5" y1="194" y2="194"/><line style="stroke: #A80036; stroke-width: 1.5;" x1="2271.5" x2="2416.5" y1="202" y2="202"/><!--class Collider--><rect fill="#FEFECE" filter="url(#f1jkyunh9hhmfy)" height="103.3438" id="Collider" style="stroke: #A80036; stroke-width: 1.5;" width="309" x="2108.5" y="302"/><ellipse cx="2237.25" cy="318" fill="#ADD1B2" rx="11" ry="11" style="stroke: #A80036; stroke-width: 1.0;"/><path d="M2239.25,314.5 Q2239.4531,314 2239.6875,313.75 Q2239.9219,313.5 2240.1875,313.5 Q2240.6563,313.5 2240.9531,313.7813 Q2241.25,314.0625 2241.25,314.7188 L2241.25,316.2813 Q2241.25,316.9375 2240.9688,317.2188 Q2240.6875,317.5 2240.25,317.5 Q2239.8594,317.5 2239.6094,317.3281 Q2239.3594,317.1563 2239.25,316.7031 Q2239.2031,316.3906 2239.0313,316.2188 Q2238.7188,315.8906 2238.1563,315.6953 Q2237.5938,315.5 2237.0313,315.5 Q2236.3281,315.5 2235.7422,315.7813 Q2235.1563,316.0625 2234.7031,316.6875 Q2234.25,317.3125 2234.25,318.1719 L2234.25,319.0938 Q2234.25,320.125 2235.0938,320.8125 Q2235.9375,321.5 2237.4375,321.5 Q2238.3281,321.5 2238.9531,321.2969 Q2239.3125,321.1875 2239.7188,320.8281 Q2239.9844,320.625 2240.125,320.5625 Q2240.2656,320.5 2240.4375,320.5 Q2240.7656,320.5 2241.0078,320.7578 Q2241.25,321.0156 2241.25,321.375 Q2241.25,321.7188 2240.9063,322.125 Q2240.4063,322.7188 2239.6094,323.0469 Q2238.5625,323.5 2237.2813,323.5 Q2235.7813,323.5 2234.5781,322.9063 Q2233.6094,322.4375 2232.9297,321.4219 Q2232.25,320.4063 2232.25,319.2031 L2232.25,318.1094 Q2232.25,316.8594 2232.8516,315.7656 Q2233.4531,314.6719 2234.5078,314.0859 Q2235.5625,313.5 2236.75,313.5 Q2237.4688,313.5 2238.0938,313.75 Q2238.7188,314 2239.25,314.5 Z "/><text fill="#000000" font-family="sans-serif" font-size="12" lengthAdjust="spacingAndGlyphs" textLength="43" x="2257.75" y="322.9102">Collider</text><line style="stroke: #A80036; stroke-width: 1.5;" x1="2109.5" x2="2416.5" y1="334" y2="334"/><line style="stroke: #A80036; stroke-width: 1.5;" x1="2109.5" x2="2416.5" y1="342" y2="342"/><text fill="#000000" font-family="sans-serif" font-size="11" lengthAdjust="spacingAndGlyphs" text-decoration="underline" textLength="250" x="2114.5" y="357.4189">Vector intersection(Vector, Vector, Vector, Vector)</text><line style="stroke: #000000; stroke-width: 1.0;" x1="2114.5" x2="2364.5" y1="359.4189" y2="359.4189"/><text fill="#000000" font-family="sans-serif" font-size="11" lengthAdjust="spacingAndGlyphs" text-decoration="underline" textLength="226" x="2114.5" y="371.2549">Vector intersection(Vector, float, Vector, float)</text><line style="stroke: #000000; stroke-width: 1.0;" x1="2114.5" x2="2340.5" y1="373.2549" y2="373.2549"/><text fill="#000000" font-family="sans-serif" font-size="11" lengthAdjust="spacingAndGlyphs" text-decoration="underline" textLength="238" x="2114.5" y="385.0908">Vector intersection(Vector, Vector, Vector, float)</text><line style="stroke: #000000; stroke-width: 1.0;" x1="2114.5" x2="2352.5" y1="387.0908" y2="387.0908"/><text fill="#000000" font-family="sans-serif" font-size="11" lengthAdjust="spacingAndGlyphs" text-decoration="underline" textLength="297" x="2114.5" y="398.9268">void elasticCollide(Vector, Vector, float, Vector, Vector, float)</text><line style="stroke: #000000; stroke-width: 1.0;" x1="2114.5" x2="2411.5" y1="400.9268" y2="400.9268"/><!--class Storable--><rect fill="#FEFECE" filter="url(#f1jkyunh9hhmfy)" height="89.5078" id="Storable" style="stroke: #A80036; stroke-width: 1.5;" width="194" x="782" y="308.5"/><ellipse cx="800.6" cy="324.5" fill="#A9DCDF" rx="11" ry="11" style="stroke: #A80036; stroke-width: 1.0;"/><path d="M802.35,326 L799.0531,326 L798.6156,327 L798.6156,327 L799.0844,327 L799.6,327.625 L799.6,328 L799.6,328.375 L799.0844,329 L798.6156,329 L796.725,329 L796.1156,329 L795.6,328.375 L795.6,328 L795.6,327.625 L796.1156,327 L796.725,327 L799.0375,321 L798.1625,321 L797.1156,321 L796.6,320.375 L796.6,320 L796.6,319.625 L797.1156,319 L798.1625,319 L801.8344,319 L804.5219,327 L805.0844,327 L805.0844,327 L805.6,327.625 L805.6,328 L805.6,328.375 L805.0844,329 L804.5219,329 L802.6313,329 L802.1156,329 L801.6,328.375 L801.6,328 L801.6,327.625 L802.1156,327 L802.6313,327 L802.6313,327 L802.35,326 Z M801.8031,324 L800.6,320.4219 L799.5688,324 L801.8031,324 Z "/><text fill="#000000" font-family="sans-serif" font-size="12" font-style="italic" lengthAdjust="spacingAndGlyphs" textLength="47" x="815.4" y="329.4102">Storable</text><rect fill="#FFFFFF" height="17.0938" style="stroke: #000000; stroke-width: 1.0; stroke-dasharray: 2.0,2.0;" width="105" x="874" y="305.5"/><text fill="#000000" font-family="sans-serif" font-size="12" font-style="italic" lengthAdjust="spacingAndGlyphs" textLength="103" x="875" y="318.957">T extends Storable</text><line style="stroke: #A80036; stroke-width: 1.5;" x1="783" x2="975" y1="340.5" y2="340.5"/><line style="stroke: #A80036; stroke-width: 1.5;" x1="783" x2="975" y1="348.5" y2="348.5"/><polygon fill="#4177AF" points="793,356.918,789,362.918,797,362.918" style="stroke: #1963A0; stroke-width: 1.0;"/><text fill="#000000" font-family="sans-serif" font-size="11" lengthAdjust="spacingAndGlyphs" textLength="168" x="802" y="363.9189">int changed(StorableChangeEvent)</text><text fill="#000000" font-family="sans-serif" font-size="11" lengthAdjust="spacingAndGlyphs" textLength="133" x="802" y="377.7549">T register(StorableListener)</text><text fill="#000000" font-family="sans-serif" font-size="11" lengthAdjust="spacingAndGlyphs" textLength="41" x="802" y="391.5908">T copy()</text><!--class StorableListener--><rect fill="#FEFECE" filter="url(#f1jkyunh9hhmfy)" height="48" id="StorableListener" style="stroke: #A80036; stroke-width: 1.5;" width="123" x="1064.5" y="492"/><ellipse cx="1079.5" cy="508" fill="#B4A7E5" rx="11" ry="11" style="stroke: #A80036; stroke-width: 1.0;"/><path d="M1080.5,505 L1080.5,511 L1082.5,511 L1082.9844,511 L1083.5,511.625 L1083.5,512 L1083.5,512.375 L1082.9844,513 L1082.5,513 L1076.5,513 L1076.0156,513 L1075.5,512.375 L1075.5,512 L1075.5,511.625 L1076.0156,511 L1076.5,511 L1078.5,511 L1078.5,505 L1076.5,505 L1076.0156,505 L1075.5,504.375 L1075.5,504 L1075.5,503.625 L1076.0156,503 L1076.5,503 L1082.5,503 L1082.9844,503 L1083.5,503.625 L1083.5,504 L1083.5,504.375 L1082.9844,505 L1082.5,505 L1080.5,505 Z "/><text fill="#000000" font-family="sans-serif" font-size="12" font-style="italic" lengthAdjust="spacingAndGlyphs" textLength="91" x="1093.5" y="512.9102">StorableListener</text><line style="stroke: #A80036; stroke-width: 1.5;" x1="1065.5" x2="1186.5" y1="524" y2="524"/><line style="stroke: #A80036; stroke-width: 1.5;" x1="1065.5" x2="1186.5" y1="532" y2="532"/><!--class storage.Entity--><rect fill="#FEFECE" filter="url(#f1jkyunh9hhmfy)" height="48" id="storage.Entity" style="stroke: #A80036; stroke-width: 1.5;" width="61" x="1403.5" y="492"/><ellipse cx="1418.5" cy="508" fill="#ADD1B2" rx="11" ry="11" style="stroke: #A80036; stroke-width: 1.0;"/><path d="M1420.5,504.5 Q1420.7031,504 1420.9375,503.75 Q1421.1719,503.5 1421.4375,503.5 Q1421.9063,503.5 1422.2031,503.7813 Q1422.5,504.0625 1422.5,504.7188 L1422.5,506.2813 Q1422.5,506.9375 1422.2188,507.2188 Q1421.9375,507.5 1421.5,507.5 Q1421.1094,507.5 1420.8594,507.3281 Q1420.6094,507.1563 1420.5,506.7031 Q1420.4531,506.3906 1420.2813,506.2188 Q1419.9688,505.8906 1419.4063,505.6953 Q1418.8438,505.5 1418.2813,505.5 Q1417.5781,505.5 1416.9922,505.7813 Q1416.4063,506.0625 1415.9531,506.6875 Q1415.5,507.3125 1415.5,508.1719 L1415.5,509.0938 Q1415.5,510.125 1416.3438,510.8125 Q1417.1875,511.5 1418.6875,511.5 Q1419.5781,511.5 1420.2031,511.2969 Q1420.5625,511.1875 1420.9688,510.8281 Q1421.2344,510.625 1421.375,510.5625 Q1421.5156,510.5 1421.6875,510.5 Q1422.0156,510.5 1422.2578,510.7578 Q1422.5,511.0156 1422.5,511.375 Q1422.5,511.7188 1422.1563,512.125 Q1421.6563,512.7188 1420.8594,513.0469 Q1419.8125,513.5 1418.5313,513.5 Q1417.0313,513.5 1415.8281,512.9063 Q1414.8594,512.4375 1414.1797,511.4219 Q1413.5,510.4063 1413.5,509.2031 L1413.5,508.1094 Q1413.5,506.8594 1414.1016,505.7656 Q1414.7031,504.6719 1415.7578,504.0859 Q1416.8125,503.5 1418,503.5 Q1418.7188,503.5 1419.3438,503.75 Q1419.9688,504 1420.5,504.5 Z "/><text fill="#000000" font-family="sans-serif" font-size="12" lengthAdjust="spacingAndGlyphs" textLength="29" x="1432.5" y="512.9102">Entity</text><line style="stroke: #A80036; stroke-width: 1.5;" x1="1404.5" x2="1463.5" y1="524" y2="524"/><line style="stroke: #A80036; stroke-width: 1.5;" x1="1404.5" x2="1463.5" y1="532" y2="532"/><!--class storage.Component--><rect fill="#FEFECE" filter="url(#f1jkyunh9hhmfy)" height="48" id="storage.Component" style="stroke: #A80036; stroke-width: 1.5;" width="97" x="1385.5" y="670"/><ellipse cx="1400.5" cy="686" fill="#ADD1B2" rx="11" ry="11" style="stroke: #A80036; stroke-width: 1.0;"/><path d="M1402.5,682.5 Q1402.7031,682 1402.9375,681.75 Q1403.1719,681.5 1403.4375,681.5 Q1403.9063,681.5 1404.2031,681.7813 Q1404.5,682.0625 1404.5,682.7188 L1404.5,684.2813 Q1404.5,684.9375 1404.2188,685.2188 Q1403.9375,685.5 1403.5,685.5 Q1403.1094,685.5 1402.8594,685.3281 Q1402.6094,685.1563 1402.5,684.7031 Q1402.4531,684.3906 1402.2813,684.2188 Q1401.9688,683.8906 1401.4063,683.6953 Q1400.8438,683.5 1400.2813,683.5 Q1399.5781,683.5 1398.9922,683.7813 Q1398.4063,684.0625 1397.9531,684.6875 Q1397.5,685.3125 1397.5,686.1719 L1397.5,687.0938 Q1397.5,688.125 1398.3438,688.8125 Q1399.1875,689.5 1400.6875,689.5 Q1401.5781,689.5 1402.2031,689.2969 Q1402.5625,689.1875 1402.9688,688.8281 Q1403.2344,688.625 1403.375,688.5625 Q1403.5156,688.5 1403.6875,688.5 Q1404.0156,688.5 1404.2578,688.7578 Q1404.5,689.0156 1404.5,689.375 Q1404.5,689.7188 1404.1563,690.125 Q1403.6563,690.7188 1402.8594,691.0469 Q1401.8125,691.5 1400.5313,691.5 Q1399.0313,691.5 1397.8281,690.9063 Q1396.8594,690.4375 1396.1797,689.4219 Q1395.5,688.4063 1395.5,687.2031 L1395.5,686.1094 Q1395.5,684.8594 1396.1016,683.7656 Q1396.7031,682.6719 1397.7578,682.0859 Q1398.8125,681.5 1400,681.5 Q1400.7188,681.5 1401.3438,681.75 Q1401.9688,682 1402.5,682.5 Z "/><text fill="#000000" font-family="sans-serif" font-size="12" lengthAdjust="spacingAndGlyphs" textLength="65" x="1414.5" y="690.9102">Component</text><line style="stroke: #A80036; stroke-width: 1.5;" x1="1386.5" x2="1481.5" y1="702" y2="702"/><line style="stroke: #A80036; stroke-width: 1.5;" x1="1386.5" x2="1481.5" y1="710" y2="710"/><!--class storage.Attribute--><rect fill="#FEFECE" filter="url(#f1jkyunh9hhmfy)" height="48" id="storage.Attribute" style="stroke: #A80036; stroke-width: 1.5;" width="76" x="1396" y="841"/><ellipse cx="1411" cy="857" fill="#ADD1B2" rx="11" ry="11" style="stroke: #A80036; stroke-width: 1.0;"/><path d="M1413,853.5 Q1413.2031,853 1413.4375,852.75 Q1413.6719,852.5 1413.9375,852.5 Q1414.4063,852.5 1414.7031,852.7813 Q1415,853.0625 1415,853.7188 L1415,855.2813 Q1415,855.9375 1414.7188,856.2188 Q1414.4375,856.5 1414,856.5 Q1413.6094,856.5 1413.3594,856.3281 Q1413.1094,856.1563 1413,855.7031 Q1412.9531,855.3906 1412.7813,855.2188 Q1412.4688,854.8906 1411.9063,854.6953 Q1411.3438,854.5 1410.7813,854.5 Q1410.0781,854.5 1409.4922,854.7813 Q1408.9063,855.0625 1408.4531,855.6875 Q1408,856.3125 1408,857.1719 L1408,858.0938 Q1408,859.125 1408.8438,859.8125 Q1409.6875,860.5 1411.1875,860.5 Q1412.0781,860.5 1412.7031,860.2969 Q1413.0625,860.1875 1413.4688,859.8281 Q1413.7344,859.625 1413.875,859.5625 Q1414.0156,859.5 1414.1875,859.5 Q1414.5156,859.5 1414.7578,859.7578 Q1415,860.0156 1415,860.375 Q1415,860.7188 1414.6563,861.125 Q1414.1563,861.7188 1413.3594,862.0469 Q1412.3125,862.5 1411.0313,862.5 Q1409.5313,862.5 1408.3281,861.9063 Q1407.3594,861.4375 1406.6797,860.4219 Q1406,859.4063 1406,858.2031 L1406,857.1094 Q1406,855.8594 1406.6016,854.7656 Q1407.2031,853.6719 1408.2578,853.0859 Q1409.3125,852.5 1410.5,852.5 Q1411.2188,852.5 1411.8438,852.75 Q1412.4688,853 1413,853.5 Z "/><text fill="#000000" font-family="sans-serif" font-size="12" lengthAdjust="spacingAndGlyphs" textLength="44" x="1425" y="861.9102">Attribute</text><line style="stroke: #A80036; stroke-width: 1.5;" x1="1397" x2="1471" y1="873" y2="873"/><line style="stroke: #A80036; stroke-width: 1.5;" x1="1397" x2="1471" y1="881" y2="881"/><!--class Serializable--><rect fill="#FEFECE" filter="url(#f1jkyunh9hhmfy)" height="48" id="Serializable" style="stroke: #A80036; stroke-width: 1.5;" width="96" x="933" y="492"/><ellipse cx="948" cy="508" fill="#ADD1B2" rx="11" ry="11" style="stroke: #A80036; stroke-width: 1.0;"/><path d="M950,504.5 Q950.2031,504 950.4375,503.75 Q950.6719,503.5 950.9375,503.5 Q951.4063,503.5 951.7031,503.7813 Q952,504.0625 952,504.7188 L952,506.2813 Q952,506.9375 951.7188,507.2188 Q951.4375,507.5 951,507.5 Q950.6094,507.5 950.3594,507.3281 Q950.1094,507.1563 950,506.7031 Q949.9531,506.3906 949.7813,506.2188 Q949.4688,505.8906 948.9063,505.6953 Q948.3438,505.5 947.7813,505.5 Q947.0781,505.5 946.4922,505.7813 Q945.9063,506.0625 945.4531,506.6875 Q945,507.3125 945,508.1719 L945,509.0938 Q945,510.125 945.8438,510.8125 Q946.6875,511.5 948.1875,511.5 Q949.0781,511.5 949.7031,511.2969 Q950.0625,511.1875 950.4688,510.8281 Q950.7344,510.625 950.875,510.5625 Q951.0156,510.5 951.1875,510.5 Q951.5156,510.5 951.7578,510.7578 Q952,511.0156 952,511.375 Q952,511.7188 951.6563,512.125 Q951.1563,512.7188 950.3594,513.0469 Q949.3125,513.5 948.0313,513.5 Q946.5313,513.5 945.3281,512.9063 Q944.3594,512.4375 943.6797,511.4219 Q943,510.4063 943,509.2031 L943,508.1094 Q943,506.8594 943.6016,505.7656 Q944.2031,504.6719 945.2578,504.0859 Q946.3125,503.5 947.5,503.5 Q948.2188,503.5 948.8438,503.75 Q949.4688,504 950,504.5 Z "/><text fill="#000000" font-family="sans-serif" font-size="12" lengthAdjust="spacingAndGlyphs" textLength="64" x="962" y="512.9102">Serializable</text><line style="stroke: #A80036; stroke-width: 1.5;" x1="934" x2="1028" y1="524" y2="524"/><line style="stroke: #A80036; stroke-width: 1.5;" x1="934" x2="1028" y1="532" y2="532"/><!--class Serializer--><rect fill="#FEFECE" filter="url(#f1jkyunh9hhmfy)" height="75.6719" id="Serializer" style="stroke: #A80036; stroke-width: 1.5;" width="96" x="1733" y="148"/><ellipse cx="1748" cy="164" fill="#B4A7E5" rx="11" ry="11" style="stroke: #A80036; stroke-width: 1.0;"/><path d="M1749,161 L1749,167 L1751,167 L1751.4844,167 L1752,167.625 L1752,168 L1752,168.375 L1751.4844,169 L1751,169 L1745,169 L1744.5156,169 L1744,168.375 L1744,168 L1744,167.625 L1744.5156,167 L1745,167 L1747,167 L1747,161 L1745,161 L1744.5156,161 L1744,160.375 L1744,160 L1744,159.625 L1744.5156,159 L1745,159 L1751,159 L1751.4844,159 L1752,159.625 L1752,160 L1752,160.375 L1751.4844,161 L1751,161 L1749,161 Z "/><text fill="#000000" font-family="sans-serif" font-size="12" font-style="italic" lengthAdjust="spacingAndGlyphs" textLength="53" x="1762" y="168.9102">Serializer</text><rect fill="#FFFFFF" height="17.0938" style="stroke: #000000; stroke-width: 1.0; stroke-dasharray: 2.0,2.0;" width="9" x="1823" y="145"/><text fill="#000000" font-family="sans-serif" font-size="12" font-style="italic" lengthAdjust="spacingAndGlyphs" textLength="7" x="1824" y="158.457">T</text><line style="stroke: #A80036; stroke-width: 1.5;" x1="1734" x2="1828" y1="180" y2="180"/><line style="stroke: #A80036; stroke-width: 1.5;" x1="1734" x2="1828" y1="188" y2="188"/><text fill="#000000" font-family="sans-serif" font-size="11" lengthAdjust="spacingAndGlyphs" textLength="67" x="1739" y="203.4189">T read(String)</text><text fill="#000000" font-family="sans-serif" font-size="11" lengthAdjust="spacingAndGlyphs" textLength="70" x="1739" y="217.2549">String write(T)</text><!--class EntitySerializer--><rect fill="#FEFECE" filter="url(#f1jkyunh9hhmfy)" height="48" id="EntitySerializer" style="stroke: #A80036; stroke-width: 1.5;" width="112" x="1570" y="329.5"/><ellipse cx="1585" cy="345.5" fill="#ADD1B2" rx="11" ry="11" style="stroke: #A80036; stroke-width: 1.0;"/><path d="M1587,342 Q1587.2031,341.5 1587.4375,341.25 Q1587.6719,341 1587.9375,341 Q1588.4063,341 1588.7031,341.2813 Q1589,341.5625 1589,342.2188 L1589,343.7813 Q1589,344.4375 1588.7188,344.7188 Q1588.4375,345 1588,345 Q1587.6094,345 1587.3594,344.8281 Q1587.1094,344.6563 1587,344.2031 Q1586.9531,343.8906 1586.7813,343.7188 Q1586.4688,343.3906 1585.9063,343.1953 Q1585.3438,343 1584.7813,343 Q1584.0781,343 1583.4922,343.2813 Q1582.9063,343.5625 1582.4531,344.1875 Q1582,344.8125 1582,345.6719 L1582,346.5938 Q1582,347.625 1582.8438,348.3125 Q1583.6875,349 1585.1875,349 Q1586.0781,349 1586.7031,348.7969 Q1587.0625,348.6875 1587.4688,348.3281 Q1587.7344,348.125 1587.875,348.0625 Q1588.0156,348 1588.1875,348 Q1588.5156,348 1588.7578,348.2578 Q1589,348.5156 1589,348.875 Q1589,349.2188 1588.6563,349.625 Q1588.1563,350.2188 1587.3594,350.5469 Q1586.3125,351 1585.0313,351 Q1583.5313,351 1582.3281,350.4063 Q1581.3594,349.9375 1580.6797,348.9219 Q1580,347.9063 1580,346.7031 L1580,345.6094 Q1580,344.3594 1580.6016,343.2656 Q1581.2031,342.1719 1582.2578,341.5859 Q1583.3125,341 1584.5,341 Q1585.2188,341 1585.8438,341.25 Q1586.4688,341.5 1587,342 Z "/><text fill="#000000" font-family="sans-serif" font-size="12" lengthAdjust="spacingAndGlyphs" textLength="80" x="1599" y="350.4102">EntitySerializer</text><line style="stroke: #A80036; stroke-width: 1.5;" x1="1571" x2="1681" y1="361.5" y2="361.5"/><line style="stroke: #A80036; stroke-width: 1.5;" x1="1571" x2="1681" y1="369.5" y2="369.5"/><!--class ComponentSerializer--><rect fill="#FEFECE" filter="url(#f1jkyunh9hhmfy)" height="48" id="ComponentSerializer" style="stroke: #A80036; stroke-width: 1.5;" width="148" x="1880" y="329.5"/><ellipse cx="1895" cy="345.5" fill="#ADD1B2" rx="11" ry="11" style="stroke: #A80036; stroke-width: 1.0;"/><path d="M1897,342 Q1897.2031,341.5 1897.4375,341.25 Q1897.6719,341 1897.9375,341 Q1898.4063,341 1898.7031,341.2813 Q1899,341.5625 1899,342.2188 L1899,343.7813 Q1899,344.4375 1898.7188,344.7188 Q1898.4375,345 1898,345 Q1897.6094,345 1897.3594,344.8281 Q1897.1094,344.6563 1897,344.2031 Q1896.9531,343.8906 1896.7813,343.7188 Q1896.4688,343.3906 1895.9063,343.1953 Q1895.3438,343 1894.7813,343 Q1894.0781,343 1893.4922,343.2813 Q1892.9063,343.5625 1892.4531,344.1875 Q1892,344.8125 1892,345.6719 L1892,346.5938 Q1892,347.625 1892.8438,348.3125 Q1893.6875,349 1895.1875,349 Q1896.0781,349 1896.7031,348.7969 Q1897.0625,348.6875 1897.4688,348.3281 Q1897.7344,348.125 1897.875,348.0625 Q1898.0156,348 1898.1875,348 Q1898.5156,348 1898.7578,348.2578 Q1899,348.5156 1899,348.875 Q1899,349.2188 1898.6563,349.625 Q1898.1563,350.2188 1897.3594,350.5469 Q1896.3125,351 1895.0313,351 Q1893.5313,351 1892.3281,350.4063 Q1891.3594,349.9375 1890.6797,348.9219 Q1890,347.9063 1890,346.7031 L1890,345.6094 Q1890,344.3594 1890.6016,343.2656 Q1891.2031,342.1719 1892.2578,341.5859 Q1893.3125,341 1894.5,341 Q1895.2188,341 1895.8438,341.25 Q1896.4688,341.5 1897,342 Z "/><text fill="#000000" font-family="sans-serif" font-size="12" lengthAdjust="spacingAndGlyphs" textLength="116" x="1909" y="350.4102">ComponentSerializer</text><line style="stroke: #A80036; stroke-width: 1.5;" x1="1881" x2="2027" y1="361.5" y2="361.5"/><line style="stroke: #A80036; stroke-width: 1.5;" x1="1881" x2="2027" y1="369.5" y2="369.5"/><!--class AttributeSerializer--><rect fill="#FEFECE" filter="url(#f1jkyunh9hhmfy)" height="48" id="AttributeSerializer" style="stroke: #A80036; stroke-width: 1.5;" width="127" x="1717.5" y="329.5"/><ellipse cx="1732.5" cy="345.5" fill="#ADD1B2" rx="11" ry="11" style="stroke: #A80036; stroke-width: 1.0;"/><path d="M1734.5,342 Q1734.7031,341.5 1734.9375,341.25 Q1735.1719,341 1735.4375,341 Q1735.9063,341 1736.2031,341.2813 Q1736.5,341.5625 1736.5,342.2188 L1736.5,343.7813 Q1736.5,344.4375 1736.2188,344.7188 Q1735.9375,345 1735.5,345 Q1735.1094,345 1734.8594,344.8281 Q1734.6094,344.6563 1734.5,344.2031 Q1734.4531,343.8906 1734.2813,343.7188 Q1733.9688,343.3906 1733.4063,343.1953 Q1732.8438,343 1732.2813,343 Q1731.5781,343 1730.9922,343.2813 Q1730.4063,343.5625 1729.9531,344.1875 Q1729.5,344.8125 1729.5,345.6719 L1729.5,346.5938 Q1729.5,347.625 1730.3438,348.3125 Q1731.1875,349 1732.6875,349 Q1733.5781,349 1734.2031,348.7969 Q1734.5625,348.6875 1734.9688,348.3281 Q1735.2344,348.125 1735.375,348.0625 Q1735.5156,348 1735.6875,348 Q1736.0156,348 1736.2578,348.2578 Q1736.5,348.5156 1736.5,348.875 Q1736.5,349.2188 1736.1563,349.625 Q1735.6563,350.2188 1734.8594,350.5469 Q1733.8125,351 1732.5313,351 Q1731.0313,351 1729.8281,350.4063 Q1728.8594,349.9375 1728.1797,348.9219 Q1727.5,347.9063 1727.5,346.7031 L1727.5,345.6094 Q1727.5,344.3594 1728.1016,343.2656 Q1728.7031,342.1719 1729.7578,341.5859 Q1730.8125,341 1732,341 Q1732.7188,341 1733.3438,341.25 Q1733.9688,341.5 1734.5,342 Z "/><text fill="#000000" font-family="sans-serif" font-size="12" lengthAdjust="spacingAndGlyphs" textLength="95" x="1746.5" y="350.4102">AttributeSerializer</text><line style="stroke: #A80036; stroke-width: 1.5;" x1="1718.5" x2="1843.5" y1="361.5" y2="361.5"/><line style="stroke: #A80036; stroke-width: 1.5;" x1="1718.5" x2="1843.5" y1="369.5" y2="369.5"/><!--class ValueParser--><rect fill="#FEFECE" filter="url(#f1jkyunh9hhmfy)" height="75.6719" id="ValueParser" style="stroke: #A80036; stroke-width: 1.5;" width="128" x="1200" y="148"/><ellipse cx="1227.6" cy="164" fill="#B4A7E5" rx="11" ry="11" style="stroke: #A80036; stroke-width: 1.0;"/><path d="M1228.6,161 L1228.6,167 L1230.6,167 L1231.0844,167 L1231.6,167.625 L1231.6,168 L1231.6,168.375 L1231.0844,169 L1230.6,169 L1224.6,169 L1224.1156,169 L1223.6,168.375 L1223.6,168 L1223.6,167.625 L1224.1156,167 L1224.6,167 L1226.6,167 L1226.6,161 L1224.6,161 L1224.1156,161 L1223.6,160.375 L1223.6,160 L1223.6,159.625 L1224.1156,159 L1224.6,159 L1230.6,159 L1231.0844,159 L1231.6,159.625 L1231.6,160 L1231.6,160.375 L1231.0844,161 L1230.6,161 L1228.6,161 Z "/><text fill="#000000" font-family="sans-serif" font-size="12" font-style="italic" lengthAdjust="spacingAndGlyphs" textLength="68" x="1244.4" y="168.9102">ValueParser</text><line style="stroke: #A80036; stroke-width: 1.5;" x1="1201" x2="1327" y1="180" y2="180"/><line style="stroke: #A80036; stroke-width: 1.5;" x1="1201" x2="1327" y1="188" y2="188"/><text fill="#000000" font-family="sans-serif" font-size="11" lengthAdjust="spacingAndGlyphs" textLength="98" x="1206" y="203.4189">Object parse(String)</text><text fill="#000000" font-family="sans-serif" font-size="11" lengthAdjust="spacingAndGlyphs" textLength="116" x="1206" y="217.2549">boolean accepts(String)</text><!--class MapParser--><rect fill="#FEFECE" filter="url(#f1jkyunh9hhmfy)" height="48" id="MapParser" style="stroke: #A80036; stroke-width: 1.5;" width="92" x="1294" y="329.5"/><ellipse cx="1309" cy="345.5" fill="#ADD1B2" rx="11" ry="11" style="stroke: #A80036; stroke-width: 1.0;"/><path d="M1311,342 Q1311.2031,341.5 1311.4375,341.25 Q1311.6719,341 1311.9375,341 Q1312.4063,341 1312.7031,341.2813 Q1313,341.5625 1313,342.2188 L1313,343.7813 Q1313,344.4375 1312.7188,344.7188 Q1312.4375,345 1312,345 Q1311.6094,345 1311.3594,344.8281 Q1311.1094,344.6563 1311,344.2031 Q1310.9531,343.8906 1310.7813,343.7188 Q1310.4688,343.3906 1309.9063,343.1953 Q1309.3438,343 1308.7813,343 Q1308.0781,343 1307.4922,343.2813 Q1306.9063,343.5625 1306.4531,344.1875 Q1306,344.8125 1306,345.6719 L1306,346.5938 Q1306,347.625 1306.8438,348.3125 Q1307.6875,349 1309.1875,349 Q1310.0781,349 1310.7031,348.7969 Q1311.0625,348.6875 1311.4688,348.3281 Q1311.7344,348.125 1311.875,348.0625 Q1312.0156,348 1312.1875,348 Q1312.5156,348 1312.7578,348.2578 Q1313,348.5156 1313,348.875 Q1313,349.2188 1312.6563,349.625 Q1312.1563,350.2188 1311.3594,350.5469 Q1310.3125,351 1309.0313,351 Q1307.5313,351 1306.3281,350.4063 Q1305.3594,349.9375 1304.6797,348.9219 Q1304,347.9063 1304,346.7031 L1304,345.6094 Q1304,344.3594 1304.6016,343.2656 Q1305.2031,342.1719 1306.2578,341.5859 Q1307.3125,341 1308.5,341 Q1309.2188,341 1309.8438,341.25 Q1310.4688,341.5 1311,342 Z "/><text fill="#000000" font-family="sans-serif" font-size="12" lengthAdjust="spacingAndGlyphs" textLength="60" x="1323" y="350.4102">MapParser</text><line style="stroke: #A80036; stroke-width: 1.5;" x1="1295" x2="1385" y1="361.5" y2="361.5"/><line style="stroke: #A80036; stroke-width: 1.5;" x1="1295" x2="1385" y1="369.5" y2="369.5"/><!--class NumberParser--><rect fill="#FEFECE" filter="url(#f1jkyunh9hhmfy)" height="48" id="NumberParser" style="stroke: #A80036; stroke-width: 1.5;" width="114" x="1421" y="329.5"/><ellipse cx="1436" cy="345.5" fill="#ADD1B2" rx="11" ry="11" style="stroke: #A80036; stroke-width: 1.0;"/><path d="M1438,342 Q1438.2031,341.5 1438.4375,341.25 Q1438.6719,341 1438.9375,341 Q1439.4063,341 1439.7031,341.2813 Q1440,341.5625 1440,342.2188 L1440,343.7813 Q1440,344.4375 1439.7188,344.7188 Q1439.4375,345 1439,345 Q1438.6094,345 1438.3594,344.8281 Q1438.1094,344.6563 1438,344.2031 Q1437.9531,343.8906 1437.7813,343.7188 Q1437.4688,343.3906 1436.9063,343.1953 Q1436.3438,343 1435.7813,343 Q1435.0781,343 1434.4922,343.2813 Q1433.9063,343.5625 1433.4531,344.1875 Q1433,344.8125 1433,345.6719 L1433,346.5938 Q1433,347.625 1433.8438,348.3125 Q1434.6875,349 1436.1875,349 Q1437.0781,349 1437.7031,348.7969 Q1438.0625,348.6875 1438.4688,348.3281 Q1438.7344,348.125 1438.875,348.0625 Q1439.0156,348 1439.1875,348 Q1439.5156,348 1439.7578,348.2578 Q1440,348.5156 1440,348.875 Q1440,349.2188 1439.6563,349.625 Q1439.1563,350.2188 1438.3594,350.5469 Q1437.3125,351 1436.0313,351 Q1434.5313,351 1433.3281,350.4063 Q1432.3594,349.9375 1431.6797,348.9219 Q1431,347.9063 1431,346.7031 L1431,345.6094 Q1431,344.3594 1431.6016,343.2656 Q1432.2031,342.1719 1433.2578,341.5859 Q1434.3125,341 1435.5,341 Q1436.2188,341 1436.8438,341.25 Q1437.4688,341.5 1438,342 Z "/><text fill="#000000" font-family="sans-serif" font-size="12" lengthAdjust="spacingAndGlyphs" textLength="82" x="1450" y="350.4102">NumberParser</text><line style="stroke: #A80036; stroke-width: 1.5;" x1="1422" x2="1534" y1="361.5" y2="361.5"/><line style="stroke: #A80036; stroke-width: 1.5;" x1="1422" x2="1534" y1="369.5" y2="369.5"/><!--class StringParser--><rect fill="#FEFECE" filter="url(#f1jkyunh9hhmfy)" height="48" id="StringParser" style="stroke: #A80036; stroke-width: 1.5;" width="101" x="1032.5" y="329.5"/><ellipse cx="1047.5" cy="345.5" fill="#ADD1B2" rx="11" ry="11" style="stroke: #A80036; stroke-width: 1.0;"/><path d="M1049.5,342 Q1049.7031,341.5 1049.9375,341.25 Q1050.1719,341 1050.4375,341 Q1050.9063,341 1051.2031,341.2813 Q1051.5,341.5625 1051.5,342.2188 L1051.5,343.7813 Q1051.5,344.4375 1051.2188,344.7188 Q1050.9375,345 1050.5,345 Q1050.1094,345 1049.8594,344.8281 Q1049.6094,344.6563 1049.5,344.2031 Q1049.4531,343.8906 1049.2813,343.7188 Q1048.9688,343.3906 1048.4063,343.1953 Q1047.8438,343 1047.2813,343 Q1046.5781,343 1045.9922,343.2813 Q1045.4063,343.5625 1044.9531,344.1875 Q1044.5,344.8125 1044.5,345.6719 L1044.5,346.5938 Q1044.5,347.625 1045.3438,348.3125 Q1046.1875,349 1047.6875,349 Q1048.5781,349 1049.2031,348.7969 Q1049.5625,348.6875 1049.9688,348.3281 Q1050.2344,348.125 1050.375,348.0625 Q1050.5156,348 1050.6875,348 Q1051.0156,348 1051.2578,348.2578 Q1051.5,348.5156 1051.5,348.875 Q1051.5,349.2188 1051.1563,349.625 Q1050.6563,350.2188 1049.8594,350.5469 Q1048.8125,351 1047.5313,351 Q1046.0313,351 1044.8281,350.4063 Q1043.8594,349.9375 1043.1797,348.9219 Q1042.5,347.9063 1042.5,346.7031 L1042.5,345.6094 Q1042.5,344.3594 1043.1016,343.2656 Q1043.7031,342.1719 1044.7578,341.5859 Q1045.8125,341 1047,341 Q1047.7188,341 1048.3438,341.25 Q1048.9688,341.5 1049.5,342 Z "/><text fill="#000000" font-family="sans-serif" font-size="12" lengthAdjust="spacingAndGlyphs" textLength="69" x="1061.5" y="350.4102">StringParser</text><line style="stroke: #A80036; stroke-width: 1.5;" x1="1033.5" x2="1132.5" y1="361.5" y2="361.5"/><line style="stroke: #A80036; stroke-width: 1.5;" x1="1033.5" x2="1132.5" y1="369.5" y2="369.5"/><!--class URIParser--><rect fill="#FEFECE" filter="url(#f1jkyunh9hhmfy)" height="48" id="URIParser" style="stroke: #A80036; stroke-width: 1.5;" width="90" x="1169" y="329.5"/><ellipse cx="1184" cy="345.5" fill="#ADD1B2" rx="11" ry="11" style="stroke: #A80036; stroke-width: 1.0;"/><path d="M1186,342 Q1186.2031,341.5 1186.4375,341.25 Q1186.6719,341 1186.9375,341 Q1187.4063,341 1187.7031,341.2813 Q1188,341.5625 1188,342.2188 L1188,343.7813 Q1188,344.4375 1187.7188,344.7188 Q1187.4375,345 1187,345 Q1186.6094,345 1186.3594,344.8281 Q1186.1094,344.6563 1186,344.2031 Q1185.9531,343.8906 1185.7813,343.7188 Q1185.4688,343.3906 1184.9063,343.1953 Q1184.3438,343 1183.7813,343 Q1183.0781,343 1182.4922,343.2813 Q1181.9063,343.5625 1181.4531,344.1875 Q1181,344.8125 1181,345.6719 L1181,346.5938 Q1181,347.625 1181.8438,348.3125 Q1182.6875,349 1184.1875,349 Q1185.0781,349 1185.7031,348.7969 Q1186.0625,348.6875 1186.4688,348.3281 Q1186.7344,348.125 1186.875,348.0625 Q1187.0156,348 1187.1875,348 Q1187.5156,348 1187.7578,348.2578 Q1188,348.5156 1188,348.875 Q1188,349.2188 1187.6563,349.625 Q1187.1563,350.2188 1186.3594,350.5469 Q1185.3125,351 1184.0313,351 Q1182.5313,351 1181.3281,350.4063 Q1180.3594,349.9375 1179.6797,348.9219 Q1179,347.9063 1179,346.7031 L1179,345.6094 Q1179,344.3594 1179.6016,343.2656 Q1180.2031,342.1719 1181.2578,341.5859 Q1182.3125,341 1183.5,341 Q1184.2188,341 1184.8438,341.25 Q1185.4688,341.5 1186,342 Z "/><text fill="#000000" font-family="sans-serif" font-size="12" lengthAdjust="spacingAndGlyphs" textLength="58" x="1198" y="350.4102">URIParser</text><line style="stroke: #A80036; stroke-width: 1.5;" x1="1170" x2="1258" y1="361.5" y2="361.5"/><line style="stroke: #A80036; stroke-width: 1.5;" x1="1170" x2="1258" y1="369.5" y2="369.5"/><!--link Entity to Signature--><path d="M482.598,1034.345 C477.174,1049.805 470.874,1067.76 465.663,1082.609 " fill="none" id="Entity-Signature" style="stroke: #A80036; stroke-width: 1.0;"/><polygon fill="#FFFFFF" points="486.905,1022.07,481.1441,1026.4072,482.9319,1033.3932,488.6929,1029.056,486.905,1022.07" style="stroke: #A80036; stroke-width: 1.0;"/><text fill="#000000" font-family="sans-serif" font-size="13" lengthAdjust="spacingAndGlyphs" textLength="7" x="460.1404" y="1072.0329">1</text><!--link Entity to Component--><path d="M537.216,1025.443 C568.315,1044.922 610.204,1071.161 639.997,1089.822 " fill="none" id="Entity-Component" style="stroke: #A80036; stroke-width: 1.0;"/><polygon fill="#A80036" points="525.874,1018.339,528.8359,1024.9137,536.044,1024.7085,533.0822,1018.1337,525.874,1018.339" style="stroke: #A80036; stroke-width: 1.0;"/><text fill="#000000" font-family="sans-serif" font-size="13" lengthAdjust="spacingAndGlyphs" textLength="5" x="624.8744" y="1079.1165">*</text><!--link EntityPool to Entity--><path d="M638.935,899.93 C628.534,914.771 614.999,931.588 600,944 C577.66,962.486 547.798,976.771 525.631,985.828 " fill="none" id="EntityPool-Entity" style="stroke: #A80036; stroke-width: 1.0;"/><polygon fill="#A80036" points="646.251,889.072,639.5811,891.8128,639.5457,899.0238,646.2156,896.283,646.251,889.072" style="stroke: #A80036; stroke-width: 1.0;"/><text fill="#000000" font-family="sans-serif" font-size="13" lengthAdjust="spacingAndGlyphs" textLength="5" x="533.7067" y="978.449">*</text><!--link Signature to Signature--><path d="M524.009,1102.7939 C543.766,1103.2334 559,1106.9687 559,1114 C559,1120.3721 546.488,1124.0373 529.437,1124.9956 " fill="none" id="Signature-Signature" style="stroke: #A80036; stroke-width: 1.0;"/><polygon fill="#A80036" points="524.009,1125.2061,533.1576,1128.8534,529.0052,1125.0118,532.8468,1120.8594,524.009,1125.2061" style="stroke: #A80036; stroke-width: 1.0;"/><text fill="#000000" font-family="sans-serif" font-size="13" lengthAdjust="spacingAndGlyphs" textLength="39" x="565" y="1119.4951">masks</text><!--link ImagePool to CompositeImage--><path d="M2980,230.659 C2980,262.278 2980,303.782 2980,329.275 " fill="none" id="ImagePool-CompositeImage" style="stroke: #A80036; stroke-width: 1.0;"/><polygon fill="#FFFFFF" points="2980,217.355,2976,223.355,2980,229.355,2984,223.355,2980,217.355" style="stroke: #A80036; stroke-width: 1.0;"/><text fill="#000000" font-family="sans-serif" font-size="13" lengthAdjust="spacingAndGlyphs" textLength="5" x="2974.3594" y="318.5575">*</text><!--link KeyAction to Action--><path d="M2603.73,397.559 C2610.61,425.171 2619.37,460.325 2625.51,484.947 " fill="none" id="KeyAction-Action" style="stroke: #A80036; stroke-width: 1.0;"/><polygon fill="#FFFFFF" points="2600.52,384.689,2598.0892,391.4781,2603.4211,396.333,2605.8519,389.544,2600.52,384.689" style="stroke: #A80036; stroke-width: 1.0;"/><text fill="#000000" font-family="sans-serif" font-size="13" lengthAdjust="spacingAndGlyphs" textLength="7" x="2616.1059" y="473.9557">1</text><!--link ActionPool to Action--><path d="M2686.22,232.399 C2703.43,247.065 2719.54,264.938 2729,285.5 C2755.66,343.438 2755.01,370.769 2729,429 C2718.96,451.473 2699.82,470.512 2681.26,484.918 " fill="none" id="ActionPool-Action" style="stroke: #A80036; stroke-width: 1.0;"/><polygon fill="#FFFFFF" points="2676,224.137,2678.152,231.0195,2685.3327,231.6802,2683.1808,224.7977,2676,224.137" style="stroke: #A80036; stroke-width: 1.0;"/><text fill="#000000" font-family="sans-serif" font-size="13" lengthAdjust="spacingAndGlyphs" textLength="5" x="2686.27" y="473.9203">*</text><!--link ActionPool to KeyAction--><path d="M2609.29,224.141 C2605.75,252.044 2600.93,290.007 2597.45,317.402 " fill="none" id="ActionPool-KeyAction" style="stroke: #A80036; stroke-width: 1.0;"/><polygon fill="#A80036" points="2596.82,322.389,2601.9197,313.9633,2597.4486,317.4287,2593.9832,312.9575,2596.82,322.389" style="stroke: #A80036; stroke-width: 1.0;"/><text fill="#000000" font-family="sans-serif" font-size="13" lengthAdjust="spacingAndGlyphs" textLength="43" x="2607" y="268.4951">creates</text><!--link ValueParser to MapParser--><path d="M1289.54,242.621 C1303.11,272.157 1319.05,306.878 1329.33,329.263 " fill="none" id="ValueParser-MapParser" style="stroke: #A80036; stroke-width: 1.0;"/><polygon fill="none" points="1283.04,245.238,1281.06,224.141,1295.76,239.395,1283.04,245.238" style="stroke: #A80036; stroke-width: 1.0;"/><!--link ValueParser to NumberParser--><path d="M1336.14,235.809 C1358,251.209 1381.81,268.619 1403,285.5 C1420.48,299.427 1439.23,316.177 1453.61,329.445 " fill="none" id="ValueParser-NumberParser" style="stroke: #A80036; stroke-width: 1.0;"/><polygon fill="none" points="1331.9,241.388,1319.51,224.204,1339.91,229.907,1331.9,241.388" style="stroke: #A80036; stroke-width: 1.0;"/><!--link ValueParser to StringParser--><path d="M1204.99,237.24 C1187.42,252.519 1168.26,269.503 1151,285.5 C1135.68,299.695 1118.97,316.148 1105.95,329.197 " fill="none" id="ValueParser-StringParser" style="stroke: #A80036; stroke-width: 1.0;"/><polygon fill="none" points="1200.55,231.828,1220.26,224.043,1209.71,242.419,1200.55,231.828" style="stroke: #A80036; stroke-width: 1.0;"/><!--link ValueParser to URIParser--><path d="M1246.94,243.466 C1238.07,272.817 1227.72,307.092 1221.02,329.263 " fill="none" id="ValueParser-URIParser" style="stroke: #A80036; stroke-width: 1.0;"/><polygon fill="none" points="1240.29,241.262,1252.78,224.141,1253.7,245.311,1240.29,241.262" style="stroke: #A80036; stroke-width: 1.0;"/><!--link Serializer to EntitySerializer--><path d="M1732.44,238.853 C1704.05,269.158 1669.63,305.919 1647.76,329.263 " fill="none" id="Serializer-EntitySerializer" style="stroke: #A80036; stroke-width: 1.0;"/><polygon fill="none" points="1727.43,233.954,1746.21,224.141,1737.65,243.524,1727.43,233.954" style="stroke: #A80036; stroke-width: 1.0;"/><!--link Serializer to ComponentSerializer--><path d="M1834.34,238.024 C1866.18,268.486 1905.09,305.706 1929.71,329.263 " fill="none" id="Serializer-ComponentSerializer" style="stroke: #A80036; stroke-width: 1.0;"/><polygon fill="none" points="1829.44,243.025,1819.82,224.141,1839.12,232.909,1829.44,243.025" style="stroke: #A80036; stroke-width: 1.0;"/><!--link Serializer to AttributeSerializer--><path d="M1781,244.314 C1781,273.475 1781,307.305 1781,329.263 " fill="none" id="Serializer-AttributeSerializer" style="stroke: #A80036; stroke-width: 1.0;"/><polygon fill="none" points="1774,244.141,1781,224.141,1788,244.141,1774,244.141" style="stroke: #A80036; stroke-width: 1.0;"/><!--link EntitySerializer to storage.Entity--><path d="M1604.51,377.563 C1589.94,392.757 1569.96,412.769 1551,429 C1524.68,451.532 1492.89,474.659 1469.1,491.248 " fill="none" id="EntitySerializer-storage.Entity" style="stroke: #A80036; stroke-width: 1.0;"/><polygon fill="#A80036" points="1464.75,494.268,1474.4221,492.4105,1468.8541,491.412,1469.8525,485.844,1464.75,494.268" style="stroke: #A80036; stroke-width: 1.0;"/><text fill="#000000" font-family="sans-serif" font-size="13" lengthAdjust="spacingAndGlyphs" textLength="55" x="1540" y="451.4951">serializes</text><!--link ComponentSerializer to storage.Component--><path d="M1927.38,377.672 C1909.41,392.913 1884.87,412.934 1862,429 C1756.59,503.039 1723.53,511.202 1614,579 C1565.79,608.84 1510.79,643.812 1474.41,667.076 " fill="none" id="ComponentSerializer-storage.Component" style="stroke: #A80036; stroke-width: 1.0;"/><polygon fill="#A80036" points="1470.06,669.853,1479.7955,668.3629,1474.2692,667.1544,1475.4777,661.6282,1470.06,669.853" style="stroke: #A80036; stroke-width: 1.0;"/><text fill="#000000" font-family="sans-serif" font-size="13" lengthAdjust="spacingAndGlyphs" textLength="55" x="1777" y="521.4951">serializes</text><!--link AttributeSerializer to storage.Attribute--><path d="M1754.81,377.79 C1727.78,402.65 1685.4,444.024 1655,485 C1570.72,598.615 1573.18,641.937 1500,763 C1484.72,788.271 1466.26,816.337 1452.75,836.457 " fill="none" id="AttributeSerializer-storage.Attribute" style="stroke: #A80036; stroke-width: 1.0;"/><polygon fill="#A80036" points="1449.94,840.626,1458.278,835.384,1452.7273,836.475,1451.6364,830.9243,1449.94,840.626" style="stroke: #A80036; stroke-width: 1.0;"/><text fill="#000000" font-family="sans-serif" font-size="13" lengthAdjust="spacingAndGlyphs" textLength="55" x="1595" y="593.4951">serializes</text><!--link Storable to Serializable--><path d="M907.142,398.782 C922.217,422.504 940.653,451.512 955.334,474.613 " fill="none" id="Storable-Serializable" style="stroke: #A80036; stroke-width: 1.0; stroke-dasharray: 7.0,7.0;"/><polygon fill="none" points="961.347,471.025,966.167,491.659,949.531,478.534,961.347,471.025" style="stroke: #A80036; stroke-width: 1.0;"/><!--link Storable to StorableListener--><path d="M957.925,405.785 C1002.426,434.702 1055.84,469.413 1090.33,491.821 " fill="none" id="Storable-StorableListener" style="stroke: #A80036; stroke-width: 1.0;"/><polygon fill="#FFFFFF" points="946.821,398.57,949.6726,405.1933,956.8832,405.1085,954.0316,398.4852,946.821,398.57" style="stroke: #A80036; stroke-width: 1.0;"/><text fill="#000000" font-family="sans-serif" font-size="13" lengthAdjust="spacingAndGlyphs" textLength="5" x="1075.5489" y="481.1153">*</text><!--link Storable to storage.Entity--><path d="M968.496,408.013 C983.98,415.854 1000.191,423.22 1016,429 C1155.52,480.005 1332.9,503.869 1403.25,511.818 " fill="none" id="Storable-storage.Entity" style="stroke: #A80036; stroke-width: 1.0;"/><polygon fill="none" points="965.156,414.166,950.719,398.656,971.677,401.777,965.156,414.166" style="stroke: #A80036; stroke-width: 1.0;"/><!--link Storable to storage.Component--><path d="M872.129,418.957 C870.746,466.916 877.349,530.774 915,571 C979.279,639.675 1268.64,676.204 1385.16,688.342 " fill="none" id="Storable-storage.Component" style="stroke: #A80036; stroke-width: 1.0;"/><polygon fill="none" points="865.147,418.441,873.193,398.839,879.127,419.18,865.147,418.441" style="stroke: #A80036; stroke-width: 1.0;"/><!--link Storable to storage.Attribute--><path d="M867.019,418.777 C866.198,424.919 865.5,431.067 865,437 C861.161,482.566 849.856,540.082 869,571 C990.431,767.108 1289.51,838.215 1395.77,857.782 " fill="none" id="Storable-storage.Attribute" style="stroke: #A80036; stroke-width: 1.0;"/><polygon fill="none" points="860.123,417.566,870.066,398.854,873.962,419.682,860.123,417.566" style="stroke: #A80036; stroke-width: 1.0;"/><!--link storage.Entity to storage.Component--><path d="M1434,553.426 C1434,588.457 1434,640.337 1434,669.985 " fill="none" id="storage.Entity-storage.Component" style="stroke: #A80036; stroke-width: 1.0;"/><polygon fill="#FFFFFF" points="1434,540.009,1430,546.009,1434,552.009,1438,546.009,1434,540.009" style="stroke: #A80036; stroke-width: 1.0;"/><text fill="#000000" font-family="sans-serif" font-size="13" lengthAdjust="spacingAndGlyphs" textLength="5" x="1428.3594" y="659.3213">*</text><!--link storage.Component to storage.Attribute--><path d="M1434,731.36 C1434,764.557 1434,812.63 1434,840.865 " fill="none" id="storage.Component-storage.Attribute" style="stroke: #A80036; stroke-width: 1.0;"/><polygon fill="#FFFFFF" points="1434,718.144,1430,724.144,1434,730.144,1438,724.144,1434,718.144" style="stroke: #A80036; stroke-width: 1.0;"/><text fill="#000000" font-family="sans-serif" font-size="13" lengthAdjust="spacingAndGlyphs" textLength="5" x="1428.3594" y="830.1706">*</text><!--link GameLoop to GameEngine--><path d="M529,397.936 C529,425.49 529,460.437 529,484.947 " fill="none" id="GameLoop-GameEngine" style="stroke: #A80036; stroke-width: 1.0;"/><polygon fill="#A80036" points="529,384.689,525,390.689,529,396.689,533,390.689,529,384.689" style="stroke: #A80036; stroke-width: 1.0;"/><text fill="#000000" font-family="sans-serif" font-size="13" lengthAdjust="spacingAndGlyphs" textLength="7" x="521.2344" y="473.9557">1</text><!--link GameEngine to EventBroadcaster--><path d="M463.295,523.116 C397.481,532.01 295.9,553.53 224,605 C206.753,617.347 190.195,633.649 176.468,648.863 " fill="none" id="GameEngine-EventBroadcaster" style="stroke: #A80036; stroke-width: 1.0;"/><polygon fill="#A80036" points="476.366,521.452,469.909,518.2416,464.462,522.9672,470.9191,526.1776,476.366,521.452" style="stroke: #A80036; stroke-width: 1.0;"/><text fill="#000000" font-family="sans-serif" font-size="13" lengthAdjust="spacingAndGlyphs" textLength="7" x="174.3631" y="638.2861">1</text><!--link GameEngine to EntityPool--><path d="M594.441,526.64 C640.924,537.275 700.179,559.39 730,605 C768.428,663.774 750.955,695.977 730,763 C720.641,792.933 698.95,821.792 682.174,840.941 " fill="none" id="GameEngine-EntityPool" style="stroke: #A80036; stroke-width: 1.0;"/><polygon fill="#A80036" points="581.704,523.934,586.7418,529.0935,593.442,526.4277,588.4043,521.2682,581.704,523.934" style="stroke: #A80036; stroke-width: 1.0;"/><text fill="#000000" font-family="sans-serif" font-size="13" lengthAdjust="spacingAndGlyphs" textLength="7" x="679.9592" y="830.266">1</text><!--link GameEngine to GameSystem--><path d="M539.282,559.988 C549.436,613.886 557.374,706.097 510,763 C481.168,797.631 455.939,779 412,789 C393.472,793.217 386.891,788.295 370,797 C352.654,805.939 336.655,820.534 324.344,833.823 " fill="none" id="GameEngine-GameSystem" style="stroke: #A80036; stroke-width: 1.0;"/><polygon fill="#A80036" points="536.685,547.155,533.9546,553.8292,539.0653,558.9166,541.7957,552.2424,536.685,547.155" style="stroke: #A80036; stroke-width: 1.0;"/><text fill="#000000" font-family="sans-serif" font-size="13" lengthAdjust="spacingAndGlyphs" textLength="5" x="323.8493" y="823.291">*</text><!--link GameEngine to GameSystem--><path d="M476.266,521.689 C423.679,529.466 345.369,550.127 307,605 C259.93,672.317 276.45,775.382 289.79,828.943 " fill="none" id="GameEngine-GameSystem" style="stroke: #A80036; stroke-width: 1.0;"/><polygon fill="#A80036" points="291.069,833.969,292.7264,824.2606,289.8362,829.1234,284.9734,826.2331,291.069,833.969" style="stroke: #A80036; stroke-width: 1.0;"/><text fill="#000000" font-family="sans-serif" font-size="13" lengthAdjust="spacingAndGlyphs" textLength="46" x="308" y="699.4951">updates</text><!--link GameEngine to PerformanceCounter--><path d="M547.91,547.255 C565.825,575.92 592.888,619.221 612.863,651.181 " fill="none" id="GameEngine-PerformanceCounter" style="stroke: #A80036; stroke-width: 1.0;"/><polygon fill="#A80036" points="615.757,655.811,614.379,646.059,613.107,651.571,607.595,650.299,615.757,655.811" style="stroke: #A80036; stroke-width: 1.0;"/><text fill="#000000" font-family="sans-serif" font-size="13" lengthAdjust="spacingAndGlyphs" textLength="42" x="579" y="593.4951">queries</text><!--link GameSystem to Signature--><path d="M318.196,896.036 C337.35,927.545 368.485,978.446 396,1022 C407.866,1040.783 421.329,1061.585 432.395,1078.554 " fill="none" id="GameSystem-Signature" style="stroke: #A80036; stroke-width: 1.0;"/><polygon fill="#A80036" points="435.154,1082.781,433.5846,1073.058,432.4212,1078.5939,426.8853,1077.4305,435.154,1082.781" style="stroke: #A80036; stroke-width: 1.0;"/><text fill="#000000" font-family="sans-serif" font-size="13" lengthAdjust="spacingAndGlyphs" textLength="49" x="397" y="1003.4951">filters by</text><!--link GameSystem to Entity--><path d="M344.737,896.054 C379.818,919.621 427.941,951.95 460.185,973.611 " fill="none" id="GameSystem-Entity" style="stroke: #A80036; stroke-width: 1.0;"/><polygon fill="#A80036" points="464.429,976.463,459.1897,968.1233,460.2789,973.6744,454.7279,974.7635,464.429,976.463" style="stroke: #A80036; stroke-width: 1.0;"/><text fill="#000000" font-family="sans-serif" font-size="13" lengthAdjust="spacingAndGlyphs" textLength="46" x="416" y="940.4951">updates</text><!--link Limiter to GameSystem--><path d="M409.222,725.214 C386.125,754.562 351.105,799.062 326.978,829.72 " fill="none" id="Limiter-GameSystem" style="stroke: #A80036; stroke-width: 1.0;"/><polygon fill="#A80036" points="323.796,833.763,332.5051,829.1638,326.888,829.8337,326.2182,824.2166,323.796,833.763" style="stroke: #A80036; stroke-width: 1.0;"/><text fill="#000000" font-family="sans-serif" font-size="13" lengthAdjust="spacingAndGlyphs" textLength="31" x="372" y="785.4951">limits</text><!--link PerformanceCounter to GameSystem--><path d="M610.541,732.116 C592.296,752.864 566.699,776.915 538,789 C503.554,803.505 404.344,782.255 370,797 C353.33,804.157 338.282,817.174 326.448,829.844 " fill="none" id="PerformanceCounter-GameSystem" style="stroke: #A80036; stroke-width: 1.0;"/><polygon fill="#A80036" points="322.881,833.758,331.9008,829.8027,326.2499,830.0633,325.9893,824.4125,322.881,833.758" style="stroke: #A80036; stroke-width: 1.0;"/><text fill="#000000" font-family="sans-serif" font-size="13" lengthAdjust="spacingAndGlyphs" textLength="32" x="569" y="785.4951">times</text><!--link Launcher to GameLoop--><path d="M529,217.355 C529,245.584 529,287.631 529,317.315 " fill="none" id="Launcher-GameLoop" style="stroke: #A80036; stroke-width: 1.0;"/><polygon fill="#A80036" points="529,322.337,533,313.337,529,317.337,525,313.337,529,322.337" style="stroke: #A80036; stroke-width: 1.0;"/><text fill="#000000" font-family="sans-serif" font-size="13" lengthAdjust="spacingAndGlyphs" textLength="54" x="530" y="268.4951">initializes</text><!--link Vector to WeightedDistribution--><!--link Vector to Collider--><!--
@startuml

package platform {
	class GameLoop {
		handle(long)
	}

	class GameEngine {
		update(long)
	}

	abstract class GameSystem {
		update(Entity, long)
	}

	class Limiter {
		boolean isReady(long)
	}

	class PerformanceCounter {
		start()
		end(GameSystem)
	}

	class Config

	abstract class Launcher {
		start(Stage)
	}

	package event {
  	class EventBroadcaster {
  		register(String, Consumer<?>)
  		enqueue(String, Object)
  		int broadcast()
  	}
  }

  package entity {
  	class Entity
  	class EntityPool

  	class Signature {
  		boolean masks(Signature)
  	}

  	class Component

  	Entity o- - "1" Signature
  	Entity *- - "*" Component

  	EntityPool *- - "*" Entity

  	Signature - -> Signature: masks
  }

  package media {
  	class Camera {
  		Vector getAbsolutePosition(Vector)
			Vector getRelativePosition(Vector)
  	}

  	class CompositeImage

  	class ImagePool {
  		put(Properties)
		}

		class SoundPool {
			put(Properties)
		}

  	ImagePool o- - "*" CompositeImage
  }

  package input {
		class Action {
			Consumer<Entity> signal(boolean, float)
		}

		class KeyAction {
			Consumer<Entity> signal(Set<Enum<?>>, float)
		}

		class ActionPool {
			put(Properties)
			Iterable<KeyAction> parseConfig(Properties)
		}

		KeyAction o- - "1" Action

		ActionPool o- - "*" Action
		ActionPool - -> KeyAction: creates
  }

  package math {
	  class Vector

	  class WeightedDistribution

	  class Collider {
	  	{static} Vector intersection(Vector, Vector, Vector, Vector)
			{static} Vector intersection(Vector, float, Vector, float)
			{static} Vector intersection(Vector, Vector, Vector, float)
			{static} void elasticCollide(Vector, Vector, float, Vector, Vector, float)
	  }
  }

  package storage {
  	abstract class Storable<T extends Storable> {
  		~ int changed(StorableChangeEvent)
			T register(StorableListener)
			T copy()
  	}
  	interface StorableListener

		class storage.Entity
		class storage.Component
		class storage.Attribute

		package serialization {
			interface Serializer<T> {
				T read(String)
				String write(T)
			}
			class EntitySerializer
			class ComponentSerializer
			class AttributeSerializer

			interface ValueParser {
				Object parse(String)
				boolean accepts(String)
			}
			package strategy {
				ValueParser <|- - MapParser
				ValueParser <|- - NumberParser
				ValueParser <|- - StringParser
				ValueParser <|- - URIParser
			}

			Serializer <|- - EntitySerializer
			Serializer <|- - ComponentSerializer
			Serializer <|- - AttributeSerializer

			EntitySerializer - -> storage.Entity: serializes
			ComponentSerializer - -> storage.Component: serializes
			AttributeSerializer - -> storage.Attribute: serializes
		}

		Storable ..|> Serializable
		Storable o- - "*" StorableListener
		Storable <|- - storage.Entity
		Storable <|- - storage.Component
		Storable <|- - storage.Attribute

		storage.Entity o- - "*" storage.Component
		storage.Component o- - "*" storage.Attribute
  }

  GameLoop *- - "1" GameEngine

  GameEngine *- - "1" EventBroadcaster
  GameEngine *- - "1" EntityPool
	GameEngine *- - "*" GameSystem

	GameEngine - -> GameSystem: updates
	GameEngine - -> PerformanceCounter: queries

	GameSystem - -> Signature: filters by
	GameSystem - -> Entity: updates

	Limiter - -> GameSystem: limits

	PerformanceCounter - -> GameSystem: times

	Launcher - -> GameLoop: initializes
}

@enduml

PlantUML version 1.2017.15(Mon Jul 03 09:45:34 PDT 2017)
(GPL source distribution)
Java Runtime: OpenJDK Runtime Environment
JVM: OpenJDK 64-Bit Server VM
Java Version: 1.8.0_152-release-915-b12
Operating System: Windows 7
OS Version: 6.1
Default Encoding: Cp1252
Language: en
Country: US
--></g></svg>
